{
    "asset" : {
        "copyright" : "Dr.Santi Nuratch",
        "generator" : "Khronos glTF Blender I/O v0.9.2",
        "version" : "2.0"
    },
    "scene" : 0,
    "scenes" : [
        {
            "extras" : {
                "glTF2ExportSettings" : {
                    "export_apply" : 1,
                    "export_copyright" : "Dr.Santi Nuratch",
                    "export_extras" : 1,
                    "export_format" : "GLTF_SEPARATE",
                    "export_selected" : 1
                }
            },
            "name" : "Scene",
            "nodes" : [
                0,
                1,
                2,
                3
            ]
        }
    ],
    "nodes" : [
        {
            "mesh" : 0,
            "name" : "Wheel.R",
            "translation" : [
                -1.4456154108047485,
                1.7668912410736084,
                0
            ]
        },
        {
            "mesh" : 1,
            "name" : "Wheel.L",
            "translation" : [
                1.4456154108047485,
                1.7668912410736084,
                0
            ]
        },
        {
            "mesh" : 2,
            "name" : "Collider.Wheel.L.Cylinder",
            "rotation" : [
                0,
                0,
                -0.7071067690849304,
                0.7071068286895752
            ],
            "scale" : [
                0.8560518026351929,
                0.3345574736595154,
                0.8560518026351929
            ],
            "translation" : [
                1.4150723218917847,
                1.7567541599273682,
                0
            ]
        },
        {
            "mesh" : 3,
            "name" : "Collider.Wheel.R.Cylinder",
            "rotation" : [
                0,
                0,
                -0.7071067690849304,
                0.7071068286895752
            ],
            "scale" : [
                0.8560518026351929,
                0.3345574736595154,
                0.8560518026351929
            ],
            "translation" : [
                -1.4090051651000977,
                1.7567541599273682,
                0
            ]
        }
    ],
    "materials" : [
        {
            "name" : "Wheel.Black.002",
            "normalTexture" : {
                "index" : 0,
                "texCoord" : 0
            },
            "pbrMetallicRoughness" : {
                "baseColorFactor" : [
                    0.0036421676632016897,
                    0.0036421676632016897,
                    0.0036421676632016897,
                    1
                ],
                "metallicFactor" : 0.10000000149011612,
                "roughnessFactor" : 0.699999988079071
            }
        },
        {
            "name" : "Wheel.Yellow.002",
            "pbrMetallicRoughness" : {
                "baseColorFactor" : [
                    0.8000000715255737,
                    0.6283944249153137,
                    0.04846397042274475,
                    1
                ],
                "metallicFactor" : 0,
                "roughnessFactor" : 0.5
            }
        }
    ],
    "meshes" : [
        {
            "name" : "Circle.006",
            "primitives" : [
                {
                    "attributes" : {
                        "POSITION" : 0,
                        "NORMAL" : 1,
                        "TEXCOORD_0" : 2,
                        "JOINTS_0" : 3,
                        "WEIGHTS_0" : 4
                    },
                    "indices" : 5,
                    "material" : 0
                },
                {
                    "attributes" : {
                        "POSITION" : 6,
                        "NORMAL" : 7,
                        "TEXCOORD_0" : 8,
                        "JOINTS_0" : 9,
                        "WEIGHTS_0" : 10
                    },
                    "indices" : 11,
                    "material" : 1
                }
            ]
        },
        {
            "name" : "Circle.006",
            "primitives" : [
                {
                    "attributes" : {
                        "POSITION" : 12,
                        "NORMAL" : 13,
                        "TEXCOORD_0" : 14,
                        "JOINTS_0" : 15,
                        "WEIGHTS_0" : 16
                    },
                    "indices" : 5,
                    "material" : 0
                },
                {
                    "attributes" : {
                        "POSITION" : 17,
                        "NORMAL" : 18,
                        "TEXCOORD_0" : 19,
                        "JOINTS_0" : 20,
                        "WEIGHTS_0" : 21
                    },
                    "indices" : 11,
                    "material" : 1
                }
            ]
        },
        {
            "name" : "Cylinder.004",
            "primitives" : [
                {
                    "attributes" : {
                        "POSITION" : 22,
                        "NORMAL" : 23,
                        "TEXCOORD_0" : 24
                    },
                    "indices" : 25
                }
            ]
        },
        {
            "name" : "Cylinder.004",
            "primitives" : [
                {
                    "attributes" : {
                        "POSITION" : 26,
                        "NORMAL" : 27,
                        "TEXCOORD_0" : 28
                    },
                    "indices" : 25
                }
            ]
        }
    ],
    "textures" : [
        {
            "source" : 0
        }
    ],
    "images" : [
        {
            "mimeType" : "image/jpeg",
            "name" : "metal1",
            "uri" : "metal1.jpg"
        }
    ],
    "accessors" : [
        {
            "bufferView" : 0,
            "componentType" : 5126,
            "count" : 4992,
            "max" : [
                0.34238579869270325,
                0.8540652394294739,
                0.8540654182434082
            ],
            "min" : [
                -0.2475278079509735,
                -0.8540654182434082,
                -0.8540651798248291
            ],
            "type" : "VEC3"
        },
        {
            "bufferView" : 1,
            "componentType" : 5126,
            "count" : 4992,
            "type" : "VEC3"
        },
        {
            "bufferView" : 2,
            "componentType" : 5126,
            "count" : 4992,
            "type" : "VEC2"
        },
        {
            "bufferView" : 3,
            "componentType" : 5123,
            "count" : 4992,
            "type" : "VEC4"
        },
        {
            "bufferView" : 4,
            "componentType" : 5126,
            "count" : 4992,
            "type" : "VEC4"
        },
        {
            "bufferView" : 5,
            "componentType" : 5123,
            "count" : 8448,
            "type" : "SCALAR"
        },
        {
            "bufferView" : 6,
            "componentType" : 5126,
            "count" : 3243,
            "max" : [
                0.4460994303226471,
                0.8060712814331055,
                0.8060712814331055
            ],
            "min" : [
                -0.3246021866798401,
                -0.8060712814331055,
                -0.8060712814331055
            ],
            "type" : "VEC3"
        },
        {
            "bufferView" : 7,
            "componentType" : 5126,
            "count" : 3243,
            "type" : "VEC3"
        },
        {
            "bufferView" : 8,
            "componentType" : 5126,
            "count" : 3243,
            "type" : "VEC2"
        },
        {
            "bufferView" : 9,
            "componentType" : 5123,
            "count" : 3243,
            "type" : "VEC4"
        },
        {
            "bufferView" : 10,
            "componentType" : 5126,
            "count" : 3243,
            "type" : "VEC4"
        },
        {
            "bufferView" : 11,
            "componentType" : 5123,
            "count" : 5658,
            "type" : "SCALAR"
        },
        {
            "bufferView" : 12,
            "componentType" : 5126,
            "count" : 4992,
            "max" : [
                0.2475278079509735,
                0.8540652394294739,
                0.8540654182434082
            ],
            "min" : [
                -0.34238579869270325,
                -0.8540654182434082,
                -0.8540651798248291
            ],
            "type" : "VEC3"
        },
        {
            "bufferView" : 13,
            "componentType" : 5126,
            "count" : 4992,
            "type" : "VEC3"
        },
        {
            "bufferView" : 14,
            "componentType" : 5126,
            "count" : 4992,
            "type" : "VEC2"
        },
        {
            "bufferView" : 15,
            "componentType" : 5123,
            "count" : 4992,
            "type" : "VEC4"
        },
        {
            "bufferView" : 16,
            "componentType" : 5126,
            "count" : 4992,
            "type" : "VEC4"
        },
        {
            "bufferView" : 17,
            "componentType" : 5126,
            "count" : 3243,
            "max" : [
                0.3246021866798401,
                0.8060712814331055,
                0.8060712814331055
            ],
            "min" : [
                -0.4460994303226471,
                -0.8060712814331055,
                -0.8060712814331055
            ],
            "type" : "VEC3"
        },
        {
            "bufferView" : 18,
            "componentType" : 5126,
            "count" : 3243,
            "type" : "VEC3"
        },
        {
            "bufferView" : 19,
            "componentType" : 5126,
            "count" : 3243,
            "type" : "VEC2"
        },
        {
            "bufferView" : 20,
            "componentType" : 5123,
            "count" : 3243,
            "type" : "VEC4"
        },
        {
            "bufferView" : 21,
            "componentType" : 5126,
            "count" : 3243,
            "type" : "VEC4"
        },
        {
            "bufferView" : 22,
            "componentType" : 5126,
            "count" : 192,
            "max" : [
                1,
                1,
                1
            ],
            "min" : [
                -1,
                -1,
                -1
            ],
            "type" : "VEC3"
        },
        {
            "bufferView" : 23,
            "componentType" : 5126,
            "count" : 192,
            "type" : "VEC3"
        },
        {
            "bufferView" : 24,
            "componentType" : 5126,
            "count" : 192,
            "type" : "VEC2"
        },
        {
            "bufferView" : 25,
            "componentType" : 5123,
            "count" : 372,
            "type" : "SCALAR"
        },
        {
            "bufferView" : 26,
            "componentType" : 5126,
            "count" : 192,
            "max" : [
                1,
                1,
                1
            ],
            "min" : [
                -1,
                -1,
                -1
            ],
            "type" : "VEC3"
        },
        {
            "bufferView" : 27,
            "componentType" : 5126,
            "count" : 192,
            "type" : "VEC3"
        },
        {
            "bufferView" : 28,
            "componentType" : 5126,
            "count" : 192,
            "type" : "VEC2"
        }
    ],
    "bufferViews" : [
        {
            "buffer" : 0,
            "byteLength" : 59904,
            "byteOffset" : 0
        },
        {
            "buffer" : 0,
            "byteLength" : 59904,
            "byteOffset" : 59904
        },
        {
            "buffer" : 0,
            "byteLength" : 39936,
            "byteOffset" : 119808
        },
        {
            "buffer" : 0,
            "byteLength" : 39936,
            "byteOffset" : 159744
        },
        {
            "buffer" : 0,
            "byteLength" : 79872,
            "byteOffset" : 199680
        },
        {
            "buffer" : 0,
            "byteLength" : 16896,
            "byteOffset" : 279552
        },
        {
            "buffer" : 0,
            "byteLength" : 38916,
            "byteOffset" : 296448
        },
        {
            "buffer" : 0,
            "byteLength" : 38916,
            "byteOffset" : 335364
        },
        {
            "buffer" : 0,
            "byteLength" : 25944,
            "byteOffset" : 374280
        },
        {
            "buffer" : 0,
            "byteLength" : 25944,
            "byteOffset" : 400224
        },
        {
            "buffer" : 0,
            "byteLength" : 51888,
            "byteOffset" : 426168
        },
        {
            "buffer" : 0,
            "byteLength" : 11316,
            "byteOffset" : 478056
        },
        {
            "buffer" : 0,
            "byteLength" : 59904,
            "byteOffset" : 489372
        },
        {
            "buffer" : 0,
            "byteLength" : 59904,
            "byteOffset" : 549276
        },
        {
            "buffer" : 0,
            "byteLength" : 39936,
            "byteOffset" : 609180
        },
        {
            "buffer" : 0,
            "byteLength" : 39936,
            "byteOffset" : 649116
        },
        {
            "buffer" : 0,
            "byteLength" : 79872,
            "byteOffset" : 689052
        },
        {
            "buffer" : 0,
            "byteLength" : 38916,
            "byteOffset" : 768924
        },
        {
            "buffer" : 0,
            "byteLength" : 38916,
            "byteOffset" : 807840
        },
        {
            "buffer" : 0,
            "byteLength" : 25944,
            "byteOffset" : 846756
        },
        {
            "buffer" : 0,
            "byteLength" : 25944,
            "byteOffset" : 872700
        },
        {
            "buffer" : 0,
            "byteLength" : 51888,
            "byteOffset" : 898644
        },
        {
            "buffer" : 0,
            "byteLength" : 2304,
            "byteOffset" : 950532
        },
        {
            "buffer" : 0,
            "byteLength" : 2304,
            "byteOffset" : 952836
        },
        {
            "buffer" : 0,
            "byteLength" : 1536,
            "byteOffset" : 955140
        },
        {
            "buffer" : 0,
            "byteLength" : 744,
            "byteOffset" : 956676
        },
        {
            "buffer" : 0,
            "byteLength" : 2304,
            "byteOffset" : 957420
        },
        {
            "buffer" : 0,
            "byteLength" : 2304,
            "byteOffset" : 959724
        },
        {
            "buffer" : 0,
            "byteLength" : 1536,
            "byteOffset" : 962028
        }
    ],
    "buffers" : [
        {
            "byteLength" : 963564,
            "uri" : "bot_wheels.bin"
        }
    ]
}
