{
    "asset" : {
        "copyright" : "Dr.Santi Nuratch",
        "generator" : "Khronos glTF Blender I/O v0.9.2",
        "version" : "2.0"
    },
    "scene" : 0,
    "scenes" : [
        {
            "extras" : {
                "glTF2ExportSettings" : {
                    "export_apply" : 0,
                    "export_copyright" : "Dr.Santi Nuratch",
                    "export_extras" : 1,
                    "export_format" : "GLTF_SEPARATE",
                    "export_selected" : 1
                }
            },
            "name" : "Scene",
            "nodes" : [
                0,
                1
            ]
        }
    ],
    "nodes" : [
        {
            "extras" : {
                "segments" : 32
            },
            "mesh" : 0,
            "name" : "Actor.Wheel.Back.Cylinder",
            "scale" : [
                1.2734582424163818,
                1.2734582424163818,
                1.2734582424163818
            ],
            "translation" : [
                0.0036713946610689163,
                0.4386165142059326,
                -1.563706874847412
            ]
        },
        {
            "mesh" : 1,
            "name" : "Collider.Wheel.Back.Sphere",
            "scale" : [
                0.2858893573284149,
                0.2858893573284149,
                0.2858893573284149
            ],
            "translation" : [
                0.010739803314208984,
                0.43604934215545654,
                -1.5730725526809692
            ]
        }
    ],
    "materials" : [
        {
            "name" : "Black",
            "pbrMetallicRoughness" : {
                "baseColorFactor" : [
                    0.00901828519999981,
                    0.00901828519999981,
                    0.00901828519999981,
                    1
                ],
                "metallicFactor" : 0,
                "roughnessFactor" : 0.5
            }
        }
    ],
    "meshes" : [
        {
            "name" : "Cylinder.006",
            "primitives" : [
                {
                    "attributes" : {
                        "POSITION" : 0,
                        "NORMAL" : 1,
                        "TEXCOORD_0" : 2
                    },
                    "indices" : 3,
                    "material" : 0
                }
            ]
        },
        {
            "name" : "Sphere.003",
            "primitives" : [
                {
                    "attributes" : {
                        "POSITION" : 4,
                        "NORMAL" : 5,
                        "TEXCOORD_0" : 6
                    },
                    "indices" : 7
                }
            ]
        }
    ],
    "accessors" : [
        {
            "bufferView" : 0,
            "componentType" : 5126,
            "count" : 704,
            "max" : [
                0.10626471042633057,
                0.22433756291866302,
                0.22433732450008392
            ],
            "min" : [
                -0.10626456141471863,
                -0.22433756291866302,
                -0.22433778643608093
            ],
            "type" : "VEC3"
        },
        {
            "bufferView" : 1,
            "componentType" : 5126,
            "count" : 704,
            "type" : "VEC3"
        },
        {
            "bufferView" : 2,
            "componentType" : 5126,
            "count" : 704,
            "type" : "VEC2"
        },
        {
            "bufferView" : 3,
            "componentType" : 5123,
            "count" : 1140,
            "type" : "SCALAR"
        },
        {
            "bufferView" : 4,
            "componentType" : 5126,
            "count" : 1984,
            "max" : [
                1.000000238418579,
                1,
                1.0000003576278687
            ],
            "min" : [
                -0.9999998211860657,
                -1,
                -1
            ],
            "type" : "VEC3"
        },
        {
            "bufferView" : 5,
            "componentType" : 5126,
            "count" : 1984,
            "type" : "VEC3"
        },
        {
            "bufferView" : 6,
            "componentType" : 5126,
            "count" : 1984,
            "type" : "VEC2"
        },
        {
            "bufferView" : 7,
            "componentType" : 5123,
            "count" : 2880,
            "type" : "SCALAR"
        }
    ],
    "bufferViews" : [
        {
            "buffer" : 0,
            "byteLength" : 8448,
            "byteOffset" : 0
        },
        {
            "buffer" : 0,
            "byteLength" : 8448,
            "byteOffset" : 8448
        },
        {
            "buffer" : 0,
            "byteLength" : 5632,
            "byteOffset" : 16896
        },
        {
            "buffer" : 0,
            "byteLength" : 2280,
            "byteOffset" : 22528
        },
        {
            "buffer" : 0,
            "byteLength" : 23808,
            "byteOffset" : 24808
        },
        {
            "buffer" : 0,
            "byteLength" : 23808,
            "byteOffset" : 48616
        },
        {
            "buffer" : 0,
            "byteLength" : 15872,
            "byteOffset" : 72424
        },
        {
            "buffer" : 0,
            "byteLength" : 5760,
            "byteOffset" : 88296
        }
    ],
    "buffers" : [
        {
            "byteLength" : 94056,
            "uri" : "bot_wheel_B.bin"
        }
    ]
}
