{
    "asset" : {
        "generator" : "Khronos Blender glTF 2.0 I/O",
        "version" : "2.0"
    },
    "scene" : 0,
    "scenes" : [
        {
            "name" : "Scene",
            "nodes" : [
                0,
                1,
                2,
                3
            ]
        }
    ],
    "nodes" : [
        {
            "mesh" : 0,
            "name" : "StaticCylinder.000",
            "scale" : [
                1,
                4.029271125793457,
                1
            ],
            "translation" : [
                -7.535315036773682,
                4.02441930770874,
                0
            ]
        },
        {
            "mesh" : 1,
            "name" : "StaticCylinder.001",
            "scale" : [
                1,
                4.029271125793457,
                1
            ],
            "translation" : [
                7.601003170013428,
                4.02441930770874,
                0
            ]
        },
        {
            "mesh" : 2,
            "name" : "StaticCube",
            "scale" : [
                6.704583644866943,
                0.7300640344619751,
                0.4043095111846924
            ],
            "translation" : [
                0,
                6.832666873931885,
                0
            ]
        },
        {
            "mesh" : 3,
            "name" : "StaticPlane",
            "scale" : [
                20,
                20,
                20
            ],
            "translation" : [
                0,
                -0.10565979778766632,
                0
            ]
        }
    ],
    "materials" : [
        {
            "name" : "Material",
            "pbrMetallicRoughness" : {
                "baseColorFactor" : [
                    0.8000000715255737,
                    0.1870228350162506,
                    0.013914796523749828,
                    1
                ],
                "metallicFactor" : 1,
                "roughnessFactor" : 0
            }
        },
        {
            "name" : "Material.001",
            "pbrMetallicRoughness" : {
                "baseColorFactor" : [
                    0.8000000715255737,
                    0.13191868364810944,
                    0.14011725783348083,
                    1
                ],
                "metallicFactor" : 0,
                "roughnessFactor" : 0.5
            }
        },
        {
            "name" : "Material.002",
            "pbrMetallicRoughness" : {
                "baseColorFactor" : [
                    0.019891902804374695,
                    0.04954914376139641,
                    0.01453943271189928,
                    1
                ],
                "metallicFactor" : 0,
                "roughnessFactor" : 0.5
            }
        }
    ],
    "meshes" : [
        {
            "name" : "Cylinder.002",
            "primitives" : [
                {
                    "attributes" : {
                        "POSITION" : 0,
                        "NORMAL" : 1,
                        "TEXCOORD_0" : 2
                    },
                    "indices" : 3,
                    "material" : 0
                }
            ]
        },
        {
            "name" : "Cylinder.002",
            "primitives" : [
                {
                    "attributes" : {
                        "POSITION" : 4,
                        "NORMAL" : 5,
                        "TEXCOORD_0" : 6
                    },
                    "indices" : 7,
                    "material" : 0
                }
            ]
        },
        {
            "name" : "Cube.008",
            "primitives" : [
                {
                    "attributes" : {
                        "POSITION" : 8,
                        "NORMAL" : 9,
                        "TEXCOORD_0" : 10
                    },
                    "indices" : 11,
                    "material" : 1
                }
            ]
        },
        {
            "name" : "Plane.002",
            "primitives" : [
                {
                    "attributes" : {
                        "POSITION" : 12,
                        "NORMAL" : 13,
                        "TEXCOORD_0" : 14
                    },
                    "indices" : 15,
                    "material" : 2
                }
            ]
        }
    ],
    "accessors" : [
        {
            "bufferView" : 0,
            "componentType" : 5126,
            "count" : 56,
            "max" : [
                1.0464051961898804,
                1.006050705909729,
                0.9789735674858093
            ],
            "min" : [
                -1.036773443222046,
                -1,
                -1.02289617061615
            ],
            "type" : "VEC3"
        },
        {
            "bufferView" : 1,
            "componentType" : 5126,
            "count" : 56,
            "type" : "VEC3"
        },
        {
            "bufferView" : 2,
            "componentType" : 5126,
            "count" : 56,
            "type" : "VEC2"
        },
        {
            "bufferView" : 3,
            "componentType" : 5123,
            "count" : 72,
            "type" : "SCALAR"
        },
        {
            "bufferView" : 4,
            "componentType" : 5126,
            "count" : 32,
            "max" : [
                1.0464051961898804,
                1,
                0.9789735674858093
            ],
            "min" : [
                -1.0464049577713013,
                -1,
                -1.0919631719589233
            ],
            "type" : "VEC3"
        },
        {
            "bufferView" : 5,
            "componentType" : 5126,
            "count" : 32,
            "type" : "VEC3"
        },
        {
            "bufferView" : 6,
            "componentType" : 5126,
            "count" : 32,
            "type" : "VEC2"
        },
        {
            "bufferView" : 7,
            "componentType" : 5123,
            "count" : 36,
            "type" : "SCALAR"
        },
        {
            "bufferView" : 8,
            "componentType" : 5126,
            "count" : 24,
            "max" : [
                1,
                1,
                1
            ],
            "min" : [
                -1,
                -1,
                -1
            ],
            "type" : "VEC3"
        },
        {
            "bufferView" : 9,
            "componentType" : 5126,
            "count" : 24,
            "type" : "VEC3"
        },
        {
            "bufferView" : 10,
            "componentType" : 5126,
            "count" : 24,
            "type" : "VEC2"
        },
        {
            "bufferView" : 11,
            "componentType" : 5123,
            "count" : 36,
            "type" : "SCALAR"
        },
        {
            "bufferView" : 12,
            "componentType" : 5126,
            "count" : 4,
            "max" : [
                1,
                0,
                1
            ],
            "min" : [
                -1,
                0,
                -1
            ],
            "type" : "VEC3"
        },
        {
            "bufferView" : 13,
            "componentType" : 5126,
            "count" : 4,
            "type" : "VEC3"
        },
        {
            "bufferView" : 14,
            "componentType" : 5126,
            "count" : 4,
            "type" : "VEC2"
        },
        {
            "bufferView" : 15,
            "componentType" : 5123,
            "count" : 6,
            "type" : "SCALAR"
        }
    ],
    "bufferViews" : [
        {
            "buffer" : 0,
            "byteLength" : 672,
            "byteOffset" : 0
        },
        {
            "buffer" : 0,
            "byteLength" : 672,
            "byteOffset" : 672
        },
        {
            "buffer" : 0,
            "byteLength" : 448,
            "byteOffset" : 1344
        },
        {
            "buffer" : 0,
            "byteLength" : 144,
            "byteOffset" : 1792
        },
        {
            "buffer" : 0,
            "byteLength" : 384,
            "byteOffset" : 1936
        },
        {
            "buffer" : 0,
            "byteLength" : 384,
            "byteOffset" : 2320
        },
        {
            "buffer" : 0,
            "byteLength" : 256,
            "byteOffset" : 2704
        },
        {
            "buffer" : 0,
            "byteLength" : 72,
            "byteOffset" : 2960
        },
        {
            "buffer" : 0,
            "byteLength" : 288,
            "byteOffset" : 3032
        },
        {
            "buffer" : 0,
            "byteLength" : 288,
            "byteOffset" : 3320
        },
        {
            "buffer" : 0,
            "byteLength" : 192,
            "byteOffset" : 3608
        },
        {
            "buffer" : 0,
            "byteLength" : 72,
            "byteOffset" : 3800
        },
        {
            "buffer" : 0,
            "byteLength" : 48,
            "byteOffset" : 3872
        },
        {
            "buffer" : 0,
            "byteLength" : 48,
            "byteOffset" : 3920
        },
        {
            "buffer" : 0,
            "byteLength" : 32,
            "byteOffset" : 3968
        },
        {
            "buffer" : 0,
            "byteLength" : 12,
            "byteOffset" : 4000
        }
    ],
    "buffers" : [
        {
            "byteLength" : 4012,
            "uri" : "compound.bin"
        }
    ]
}
