{
    "asset" : {
        "generator" : "Khronos Blender glTF 2.0 I/O",
        "version" : "2.0"
    },
    "scene" : 0,
    "scenes" : [
        {
            "name" : "Scene",
            "nodes" : [
                0,
                1,
                2,
                3,
                4,
                5,
                6,
                7
            ]
        }
    ],
    "nodes" : [
        {
            "mesh" : 0,
            "name" : "Sphere.000_colider",
            "scale" : [
                0.4436984956264496,
                0.4436984956264496,
                0.4436984956264496
            ],
            "translation" : [
                1.6554791927337646,
                1.3418482542037964,
                0
            ]
        },
        {
            "mesh" : 1,
            "name" : "Sphere.001_colider",
            "rotation" : [
                0,
                1,
                0,
                -1.6292068494294654e-07
            ],
            "scale" : [
                0.4436984956264496,
                0.4436984956264496,
                0.4436984956264496
            ],
            "translation" : [
                -1.6554791927337646,
                1.3418482542037964,
                0
            ]
        },
        {
            "mesh" : 2,
            "name" : "Sphere.002_colider",
            "rotation" : [
                0,
                0.7071068286895752,
                0,
                0.7071067690849304
            ],
            "scale" : [
                0.4436984956264496,
                0.4436984956264496,
                0.4436984956264496
            ],
            "translation" : [
                0,
                1.3418481349945068,
                -1.6554791927337646
            ]
        },
        {
            "mesh" : 3,
            "name" : "Sphere.003_colider",
            "rotation" : [
                0,
                -0.7071065902709961,
                0,
                0.7071069478988647
            ],
            "scale" : [
                0.4436984956264496,
                0.4436984956264496,
                0.4436984956264496
            ],
            "translation" : [
                0,
                1.3418481349945068,
                1.6554791927337646
            ]
        },
        {
            "mesh" : 4,
            "name" : "Sphere.004_colider",
            "rotation" : [
                0,
                0.3826834559440613,
                0,
                0.9238795638084412
            ],
            "scale" : [
                0.4436984956264496,
                0.4436984956264496,
                0.4436984956264496
            ],
            "translation" : [
                1.1706005334854126,
                1.3418482542037964,
                -1.1706005334854126
            ]
        },
        {
            "mesh" : 5,
            "name" : "Sphere.005_colider",
            "rotation" : [
                0,
                -0.9238794445991516,
                0,
                0.3826836347579956
            ],
            "scale" : [
                0.4436984956264496,
                0.4436984956264496,
                0.4436984956264496
            ],
            "translation" : [
                -1.170600414276123,
                1.3418482542037964,
                1.1706006526947021
            ]
        },
        {
            "mesh" : 6,
            "name" : "Sphere.006_colider",
            "rotation" : [
                0,
                0.9238795638084412,
                0,
                0.38268333673477173
            ],
            "scale" : [
                0.4436984956264496,
                0.4436984956264496,
                0.4436984956264496
            ],
            "translation" : [
                -1.1706006526947021,
                1.3418481349945068,
                -1.170600414276123
            ]
        },
        {
            "mesh" : 7,
            "name" : "Sphere.007_colider",
            "rotation" : [
                0,
                -0.38268306851387024,
                0,
                0.9238796830177307
            ],
            "scale" : [
                0.443698525428772,
                0.4436984956264496,
                0.443698525428772
            ],
            "translation" : [
                1.1706006526947021,
                1.3418481349945068,
                1.170600414276123
            ]
        }
    ],
    "meshes" : [
        {
            "name" : "Sphere.009",
            "primitives" : [
                {
                    "attributes" : {
                        "POSITION" : 0,
                        "NORMAL" : 1,
                        "TEXCOORD_0" : 2
                    },
                    "indices" : 3
                }
            ]
        },
        {
            "name" : "Sphere.009",
            "primitives" : [
                {
                    "attributes" : {
                        "POSITION" : 4,
                        "NORMAL" : 5,
                        "TEXCOORD_0" : 6
                    },
                    "indices" : 7
                }
            ]
        },
        {
            "name" : "Sphere.009",
            "primitives" : [
                {
                    "attributes" : {
                        "POSITION" : 8,
                        "NORMAL" : 9,
                        "TEXCOORD_0" : 10
                    },
                    "indices" : 11
                }
            ]
        },
        {
            "name" : "Sphere.009",
            "primitives" : [
                {
                    "attributes" : {
                        "POSITION" : 12,
                        "NORMAL" : 13,
                        "TEXCOORD_0" : 14
                    },
                    "indices" : 15
                }
            ]
        },
        {
            "name" : "Sphere.009",
            "primitives" : [
                {
                    "attributes" : {
                        "POSITION" : 16,
                        "NORMAL" : 17,
                        "TEXCOORD_0" : 18
                    },
                    "indices" : 19
                }
            ]
        },
        {
            "name" : "Sphere.009",
            "primitives" : [
                {
                    "attributes" : {
                        "POSITION" : 20,
                        "NORMAL" : 21,
                        "TEXCOORD_0" : 22
                    },
                    "indices" : 23
                }
            ]
        },
        {
            "name" : "Sphere.009",
            "primitives" : [
                {
                    "attributes" : {
                        "POSITION" : 24,
                        "NORMAL" : 25,
                        "TEXCOORD_0" : 26
                    },
                    "indices" : 27
                }
            ]
        },
        {
            "name" : "Sphere.009",
            "primitives" : [
                {
                    "attributes" : {
                        "POSITION" : 28,
                        "NORMAL" : 29,
                        "TEXCOORD_0" : 30
                    },
                    "indices" : 31
                }
            ]
        }
    ],
    "accessors" : [
        {
            "bufferView" : 0,
            "componentType" : 5126,
            "count" : 1984,
            "max" : [
                1.000000238418579,
                1,
                1.0000003576278687
            ],
            "min" : [
                -0.9999998211860657,
                -1,
                -1
            ],
            "type" : "VEC3"
        },
        {
            "bufferView" : 1,
            "componentType" : 5126,
            "count" : 1984,
            "type" : "VEC3"
        },
        {
            "bufferView" : 2,
            "componentType" : 5126,
            "count" : 1984,
            "type" : "VEC2"
        },
        {
            "bufferView" : 3,
            "componentType" : 5123,
            "count" : 2880,
            "type" : "SCALAR"
        },
        {
            "bufferView" : 4,
            "componentType" : 5126,
            "count" : 1984,
            "max" : [
                1.000000238418579,
                1,
                1.0000003576278687
            ],
            "min" : [
                -0.9999998211860657,
                -1,
                -1
            ],
            "type" : "VEC3"
        },
        {
            "bufferView" : 5,
            "componentType" : 5126,
            "count" : 1984,
            "type" : "VEC3"
        },
        {
            "bufferView" : 6,
            "componentType" : 5126,
            "count" : 1984,
            "type" : "VEC2"
        },
        {
            "bufferView" : 7,
            "componentType" : 5123,
            "count" : 2880,
            "type" : "SCALAR"
        },
        {
            "bufferView" : 8,
            "componentType" : 5126,
            "count" : 1984,
            "max" : [
                1.000000238418579,
                1,
                1.0000003576278687
            ],
            "min" : [
                -0.9999998211860657,
                -1,
                -1
            ],
            "type" : "VEC3"
        },
        {
            "bufferView" : 9,
            "componentType" : 5126,
            "count" : 1984,
            "type" : "VEC3"
        },
        {
            "bufferView" : 10,
            "componentType" : 5126,
            "count" : 1984,
            "type" : "VEC2"
        },
        {
            "bufferView" : 11,
            "componentType" : 5123,
            "count" : 2880,
            "type" : "SCALAR"
        },
        {
            "bufferView" : 12,
            "componentType" : 5126,
            "count" : 1984,
            "max" : [
                1.000000238418579,
                1,
                1.0000003576278687
            ],
            "min" : [
                -0.9999998211860657,
                -1,
                -1
            ],
            "type" : "VEC3"
        },
        {
            "bufferView" : 13,
            "componentType" : 5126,
            "count" : 1984,
            "type" : "VEC3"
        },
        {
            "bufferView" : 14,
            "componentType" : 5126,
            "count" : 1984,
            "type" : "VEC2"
        },
        {
            "bufferView" : 15,
            "componentType" : 5123,
            "count" : 2880,
            "type" : "SCALAR"
        },
        {
            "bufferView" : 16,
            "componentType" : 5126,
            "count" : 1984,
            "max" : [
                1.000000238418579,
                1,
                1.0000003576278687
            ],
            "min" : [
                -0.9999998211860657,
                -1,
                -1
            ],
            "type" : "VEC3"
        },
        {
            "bufferView" : 17,
            "componentType" : 5126,
            "count" : 1984,
            "type" : "VEC3"
        },
        {
            "bufferView" : 18,
            "componentType" : 5126,
            "count" : 1984,
            "type" : "VEC2"
        },
        {
            "bufferView" : 19,
            "componentType" : 5123,
            "count" : 2880,
            "type" : "SCALAR"
        },
        {
            "bufferView" : 20,
            "componentType" : 5126,
            "count" : 1984,
            "max" : [
                1.000000238418579,
                1,
                1.0000003576278687
            ],
            "min" : [
                -0.9999998211860657,
                -1,
                -1
            ],
            "type" : "VEC3"
        },
        {
            "bufferView" : 21,
            "componentType" : 5126,
            "count" : 1984,
            "type" : "VEC3"
        },
        {
            "bufferView" : 22,
            "componentType" : 5126,
            "count" : 1984,
            "type" : "VEC2"
        },
        {
            "bufferView" : 23,
            "componentType" : 5123,
            "count" : 2880,
            "type" : "SCALAR"
        },
        {
            "bufferView" : 24,
            "componentType" : 5126,
            "count" : 1984,
            "max" : [
                1.000000238418579,
                1,
                1.0000003576278687
            ],
            "min" : [
                -0.9999998211860657,
                -1,
                -1
            ],
            "type" : "VEC3"
        },
        {
            "bufferView" : 25,
            "componentType" : 5126,
            "count" : 1984,
            "type" : "VEC3"
        },
        {
            "bufferView" : 26,
            "componentType" : 5126,
            "count" : 1984,
            "type" : "VEC2"
        },
        {
            "bufferView" : 27,
            "componentType" : 5123,
            "count" : 2880,
            "type" : "SCALAR"
        },
        {
            "bufferView" : 28,
            "componentType" : 5126,
            "count" : 1984,
            "max" : [
                1.000000238418579,
                1,
                1.0000003576278687
            ],
            "min" : [
                -0.9999998211860657,
                -1,
                -1
            ],
            "type" : "VEC3"
        },
        {
            "bufferView" : 29,
            "componentType" : 5126,
            "count" : 1984,
            "type" : "VEC3"
        },
        {
            "bufferView" : 30,
            "componentType" : 5126,
            "count" : 1984,
            "type" : "VEC2"
        },
        {
            "bufferView" : 31,
            "componentType" : 5123,
            "count" : 2880,
            "type" : "SCALAR"
        }
    ],
    "bufferViews" : [
        {
            "buffer" : 0,
            "byteLength" : 23808,
            "byteOffset" : 0
        },
        {
            "buffer" : 0,
            "byteLength" : 23808,
            "byteOffset" : 23808
        },
        {
            "buffer" : 0,
            "byteLength" : 15872,
            "byteOffset" : 47616
        },
        {
            "buffer" : 0,
            "byteLength" : 5760,
            "byteOffset" : 63488
        },
        {
            "buffer" : 0,
            "byteLength" : 23808,
            "byteOffset" : 69248
        },
        {
            "buffer" : 0,
            "byteLength" : 23808,
            "byteOffset" : 93056
        },
        {
            "buffer" : 0,
            "byteLength" : 15872,
            "byteOffset" : 116864
        },
        {
            "buffer" : 0,
            "byteLength" : 5760,
            "byteOffset" : 132736
        },
        {
            "buffer" : 0,
            "byteLength" : 23808,
            "byteOffset" : 138496
        },
        {
            "buffer" : 0,
            "byteLength" : 23808,
            "byteOffset" : 162304
        },
        {
            "buffer" : 0,
            "byteLength" : 15872,
            "byteOffset" : 186112
        },
        {
            "buffer" : 0,
            "byteLength" : 5760,
            "byteOffset" : 201984
        },
        {
            "buffer" : 0,
            "byteLength" : 23808,
            "byteOffset" : 207744
        },
        {
            "buffer" : 0,
            "byteLength" : 23808,
            "byteOffset" : 231552
        },
        {
            "buffer" : 0,
            "byteLength" : 15872,
            "byteOffset" : 255360
        },
        {
            "buffer" : 0,
            "byteLength" : 5760,
            "byteOffset" : 271232
        },
        {
            "buffer" : 0,
            "byteLength" : 23808,
            "byteOffset" : 276992
        },
        {
            "buffer" : 0,
            "byteLength" : 23808,
            "byteOffset" : 300800
        },
        {
            "buffer" : 0,
            "byteLength" : 15872,
            "byteOffset" : 324608
        },
        {
            "buffer" : 0,
            "byteLength" : 5760,
            "byteOffset" : 340480
        },
        {
            "buffer" : 0,
            "byteLength" : 23808,
            "byteOffset" : 346240
        },
        {
            "buffer" : 0,
            "byteLength" : 23808,
            "byteOffset" : 370048
        },
        {
            "buffer" : 0,
            "byteLength" : 15872,
            "byteOffset" : 393856
        },
        {
            "buffer" : 0,
            "byteLength" : 5760,
            "byteOffset" : 409728
        },
        {
            "buffer" : 0,
            "byteLength" : 23808,
            "byteOffset" : 415488
        },
        {
            "buffer" : 0,
            "byteLength" : 23808,
            "byteOffset" : 439296
        },
        {
            "buffer" : 0,
            "byteLength" : 15872,
            "byteOffset" : 463104
        },
        {
            "buffer" : 0,
            "byteLength" : 5760,
            "byteOffset" : 478976
        },
        {
            "buffer" : 0,
            "byteLength" : 23808,
            "byteOffset" : 484736
        },
        {
            "buffer" : 0,
            "byteLength" : 23808,
            "byteOffset" : 508544
        },
        {
            "buffer" : 0,
            "byteLength" : 15872,
            "byteOffset" : 532352
        },
        {
            "buffer" : 0,
            "byteLength" : 5760,
            "byteOffset" : 548224
        }
    ],
    "buffers" : [
        {
            "byteLength" : 553984,
            "uri" : "plane.bin"
        }
    ]
}
