{
    "asset" : {
        "generator" : "Khronos glTF Blender I/O v1.3.48",
        "version" : "2.0"
    },
    "scene" : 0,
    "scenes" : [
        {
            "name" : "Scene",
            "nodes" : [
                0,
                1,
                2,
                3
            ]
        }
    ],
    "nodes" : [
        {
            "mesh" : 0,
            "name" : "J.001",
            "translation" : [
                6,
                -0.005984768271446228,
                0
            ]
        },
        {
            "mesh" : 1,
            "name" : "J.002",
            "translation" : [
                12,
                -0.005984768271446228,
                0
            ]
        },
        {
            "mesh" : 2,
            "name" : "J.000",
            "translation" : [
                0,
                -0.005984768271446228,
                0
            ]
        },
        {
            "mesh" : 3,
            "name" : "Base"
        }
    ],
    "materials" : [
        {
            "emissiveFactor" : [
                0,
                0,
                0
            ],
            "name" : "Arm1",
            "normalTexture" : {
                "index" : 0,
                "texCoord" : 0
            },
            "pbrMetallicRoughness" : {
                "baseColorTexture" : {
                    "index" : 1,
                    "texCoord" : 0
                },
                "metallicRoughnessTexture" : {
                    "index" : 2,
                    "texCoord" : 0
                }
            }
        }
    ],
    "meshes" : [
        {
            "name" : "Circle.002",
            "primitives" : [
                {
                    "attributes" : {
                        "POSITION" : 0,
                        "NORMAL" : 1,
                        "TEXCOORD_0" : 2
                    },
                    "indices" : 3,
                    "material" : 0
                }
            ]
        },
        {
            "name" : "Circle.001",
            "primitives" : [
                {
                    "attributes" : {
                        "POSITION" : 4,
                        "NORMAL" : 5,
                        "TEXCOORD_0" : 6
                    },
                    "indices" : 7,
                    "material" : 0
                }
            ]
        },
        {
            "name" : "Circle.003",
            "primitives" : [
                {
                    "attributes" : {
                        "POSITION" : 8,
                        "NORMAL" : 9,
                        "TEXCOORD_0" : 10
                    },
                    "indices" : 11,
                    "material" : 0
                }
            ]
        },
        {
            "name" : "Cylinder.000",
            "primitives" : [
                {
                    "attributes" : {
                        "POSITION" : 12,
                        "NORMAL" : 13,
                        "TEXCOORD_0" : 14
                    },
                    "indices" : 15,
                    "material" : 0
                }
            ]
        }
    ],
    "textures" : [
        {
            "source" : 0
        },
        {
            "source" : 1
        },
        {
            "source" : 2
        }
    ],
    "images" : [
        {
            "bufferView" : 4,
            "mimeType" : "image/png",
            "name" : "Arm1_normal.png"
        },
        {
            "bufferView" : 5,
            "mimeType" : "image/png",
            "name" : "Arm1_baseColor.png"
        },
        {
            "bufferView" : 6,
            "mimeType" : "image/png",
            "name" : "Arm1_occlusionRoughnessMetallic.png"
        }
    ],
    "accessors" : [
        {
            "bufferView" : 0,
            "componentType" : 5126,
            "count" : 708,
            "max" : [
                6.699999809265137,
                0.9999998807907104,
                0.5000000596046448
            ],
            "min" : [
                -1,
                -0.9999998807907104,
                -0.5000000596046448
            ],
            "type" : "VEC3"
        },
        {
            "bufferView" : 1,
            "componentType" : 5126,
            "count" : 708,
            "type" : "VEC3"
        },
        {
            "bufferView" : 2,
            "componentType" : 5126,
            "count" : 708,
            "type" : "VEC2"
        },
        {
            "bufferView" : 3,
            "componentType" : 5123,
            "count" : 780,
            "type" : "SCALAR"
        },
        {
            "bufferView" : 7,
            "componentType" : 5126,
            "count" : 1426,
            "max" : [
                6.700000762939453,
                0.9999998807907104,
                1.0500001907348633
            ],
            "min" : [
                -1,
                -0.9999999403953552,
                -1.0499999523162842
            ],
            "type" : "VEC3"
        },
        {
            "bufferView" : 8,
            "componentType" : 5126,
            "count" : 1426,
            "type" : "VEC3"
        },
        {
            "bufferView" : 9,
            "componentType" : 5126,
            "count" : 1426,
            "type" : "VEC2"
        },
        {
            "bufferView" : 10,
            "componentType" : 5123,
            "count" : 1560,
            "type" : "SCALAR"
        },
        {
            "bufferView" : 11,
            "componentType" : 5126,
            "count" : 1496,
            "max" : [
                6.699999809265137,
                0.9999998807907104,
                1.0500001907348633
            ],
            "min" : [
                -1,
                -1,
                -1.0499985218048096
            ],
            "type" : "VEC3"
        },
        {
            "bufferView" : 12,
            "componentType" : 5126,
            "count" : 1496,
            "type" : "VEC3"
        },
        {
            "bufferView" : 13,
            "componentType" : 5126,
            "count" : 1496,
            "type" : "VEC2"
        },
        {
            "bufferView" : 14,
            "componentType" : 5123,
            "count" : 1560,
            "type" : "SCALAR"
        },
        {
            "bufferView" : 15,
            "componentType" : 5126,
            "count" : 877,
            "max" : [
                2.306169271469116,
                1.3107800483703613,
                2.306169271469116
            ],
            "min" : [
                -2.306169271469116,
                -6.005985260009766,
                -2.306169271469116
            ],
            "type" : "VEC3"
        },
        {
            "bufferView" : 16,
            "componentType" : 5126,
            "count" : 877,
            "type" : "VEC3"
        },
        {
            "bufferView" : 17,
            "componentType" : 5126,
            "count" : 877,
            "type" : "VEC2"
        },
        {
            "bufferView" : 18,
            "componentType" : 5123,
            "count" : 948,
            "type" : "SCALAR"
        }
    ],
    "bufferViews" : [
        {
            "buffer" : 0,
            "byteLength" : 8496,
            "byteOffset" : 0
        },
        {
            "buffer" : 0,
            "byteLength" : 8496,
            "byteOffset" : 8496
        },
        {
            "buffer" : 0,
            "byteLength" : 5664,
            "byteOffset" : 16992
        },
        {
            "buffer" : 0,
            "byteLength" : 1560,
            "byteOffset" : 22656
        },
        {
            "buffer" : 0,
            "byteLength" : 146317,
            "byteOffset" : 24216
        },
        {
            "buffer" : 0,
            "byteLength" : 322738,
            "byteOffset" : 170536
        },
        {
            "buffer" : 0,
            "byteLength" : 350332,
            "byteOffset" : 493276
        },
        {
            "buffer" : 0,
            "byteLength" : 17112,
            "byteOffset" : 843608
        },
        {
            "buffer" : 0,
            "byteLength" : 17112,
            "byteOffset" : 860720
        },
        {
            "buffer" : 0,
            "byteLength" : 11408,
            "byteOffset" : 877832
        },
        {
            "buffer" : 0,
            "byteLength" : 3120,
            "byteOffset" : 889240
        },
        {
            "buffer" : 0,
            "byteLength" : 17952,
            "byteOffset" : 892360
        },
        {
            "buffer" : 0,
            "byteLength" : 17952,
            "byteOffset" : 910312
        },
        {
            "buffer" : 0,
            "byteLength" : 11968,
            "byteOffset" : 928264
        },
        {
            "buffer" : 0,
            "byteLength" : 3120,
            "byteOffset" : 940232
        },
        {
            "buffer" : 0,
            "byteLength" : 10524,
            "byteOffset" : 943352
        },
        {
            "buffer" : 0,
            "byteLength" : 10524,
            "byteOffset" : 953876
        },
        {
            "buffer" : 0,
            "byteLength" : 7016,
            "byteOffset" : 964400
        },
        {
            "buffer" : 0,
            "byteLength" : 1896,
            "byteOffset" : 971416
        }
    ],
    "buffers" : [
        {
            "byteLength" : 973312,
            "uri" : "data:application/octet-stream;base64,"
        }
    ]
}
