{
    "asset" : {
        "generator" : "Khronos Blender glTF 2.0 I/O",
        "version" : "2.0"
    },
    "scene" : 0,
    "scenes" : [
        {
            "name" : "Scene",
            "nodes" : [
                0,
                1,
                2,
                3
            ]
        }
    ],
    "nodes" : [
        {
            "mesh" : 0,
            "name" : "Cube",
            "translation" : [
                0,
                10.95095443725586,
                0
            ]
        },
        {
            "mesh" : 1,
            "name" : "Cylinder",
            "translation" : [
                0.1259477138519287,
                18.019123077392578,
                0.7482439279556274
            ]
        },
        {
            "mesh" : 2,
            "name" : "Cone",
            "translation" : [
                -0.13596630096435547,
                13.7976713180542,
                0.35442450642585754
            ]
        },
        {
            "mesh" : 3,
            "name" : "CubeStatic",
            "scale" : [
                20,
                0.0974438488483429,
                20
            ],
            "translation" : [
                0,
                -0.1906891167163849,
                0
            ]
        }
    ],
    "materials" : [
        {
            "name" : "Material",
            "pbrMetallicRoughness" : {
                "baseColorFactor" : [
                    0.8000000715255737,
                    0.7159540057182312,
                    0,
                    1
                ],
                "metallicFactor" : 0.8999999761581421,
                "roughnessFactor" : 0
            }
        },
        {
            "name" : "Material.Blue",
            "pbrMetallicRoughness" : {
                "baseColorFactor" : [
                    0.03908269479870796,
                    0.26874008774757385,
                    0.8000000715255737,
                    1
                ],
                "metallicFactor" : 0.8999999761581421,
                "roughnessFactor" : 0
            }
        },
        {
            "name" : "Material.001",
            "pbrMetallicRoughness" : {
                "baseColorFactor" : [
                    0.10567565262317657,
                    0.14731401205062866,
                    0.10187409073114395,
                    1
                ],
                "metallicFactor" : 0,
                "roughnessFactor" : 0.5
            }
        }
    ],
    "meshes" : [
        {
            "name" : "Cube.002",
            "primitives" : [
                {
                    "attributes" : {
                        "POSITION" : 0,
                        "NORMAL" : 1,
                        "TEXCOORD_0" : 2
                    },
                    "indices" : 3,
                    "material" : 0
                },
                {
                    "attributes" : {
                        "POSITION" : 4,
                        "NORMAL" : 5,
                        "TEXCOORD_0" : 6
                    },
                    "indices" : 7,
                    "material" : 1
                }
            ]
        },
        {
            "name" : "Cylinder.001",
            "primitives" : [
                {
                    "attributes" : {
                        "POSITION" : 8,
                        "NORMAL" : 9,
                        "TEXCOORD_0" : 10
                    },
                    "indices" : 11,
                    "material" : 0
                }
            ]
        },
        {
            "name" : "Cone.001",
            "primitives" : [
                {
                    "attributes" : {
                        "POSITION" : 12,
                        "NORMAL" : 13,
                        "TEXCOORD_0" : 14
                    },
                    "indices" : 15,
                    "material" : 1
                }
            ]
        },
        {
            "name" : "Cube.002",
            "primitives" : [
                {
                    "attributes" : {
                        "POSITION" : 16,
                        "NORMAL" : 17,
                        "TEXCOORD_0" : 18
                    },
                    "indices" : 19,
                    "material" : 2
                }
            ]
        }
    ],
    "accessors" : [
        {
            "bufferView" : 0,
            "componentType" : 5126,
            "count" : 42,
            "max" : [
                1,
                1,
                1
            ],
            "min" : [
                -1,
                -1,
                -1
            ],
            "type" : "VEC3"
        },
        {
            "bufferView" : 1,
            "componentType" : 5126,
            "count" : 42,
            "type" : "VEC3"
        },
        {
            "bufferView" : 2,
            "componentType" : 5126,
            "count" : 42,
            "type" : "VEC2"
        },
        {
            "bufferView" : 3,
            "componentType" : 5123,
            "count" : 72,
            "type" : "SCALAR"
        },
        {
            "bufferView" : 4,
            "componentType" : 5126,
            "count" : 42,
            "max" : [
                1,
                1,
                1
            ],
            "min" : [
                -1,
                -1,
                -1
            ],
            "type" : "VEC3"
        },
        {
            "bufferView" : 5,
            "componentType" : 5126,
            "count" : 42,
            "type" : "VEC3"
        },
        {
            "bufferView" : 6,
            "componentType" : 5126,
            "count" : 42,
            "type" : "VEC2"
        },
        {
            "bufferView" : 7,
            "componentType" : 5123,
            "count" : 72,
            "type" : "SCALAR"
        },
        {
            "bufferView" : 8,
            "componentType" : 5126,
            "count" : 192,
            "max" : [
                1,
                1,
                1
            ],
            "min" : [
                -1,
                -1,
                -1
            ],
            "type" : "VEC3"
        },
        {
            "bufferView" : 9,
            "componentType" : 5126,
            "count" : 192,
            "type" : "VEC3"
        },
        {
            "bufferView" : 10,
            "componentType" : 5126,
            "count" : 192,
            "type" : "VEC2"
        },
        {
            "bufferView" : 11,
            "componentType" : 5123,
            "count" : 372,
            "type" : "SCALAR"
        },
        {
            "bufferView" : 12,
            "componentType" : 5126,
            "count" : 128,
            "max" : [
                1,
                1,
                1
            ],
            "min" : [
                -1,
                -1,
                -1
            ],
            "type" : "VEC3"
        },
        {
            "bufferView" : 13,
            "componentType" : 5126,
            "count" : 128,
            "type" : "VEC3"
        },
        {
            "bufferView" : 14,
            "componentType" : 5126,
            "count" : 128,
            "type" : "VEC2"
        },
        {
            "bufferView" : 15,
            "componentType" : 5123,
            "count" : 186,
            "type" : "SCALAR"
        },
        {
            "bufferView" : 16,
            "componentType" : 5126,
            "count" : 24,
            "max" : [
                1,
                1,
                1
            ],
            "min" : [
                -1,
                -1,
                -1
            ],
            "type" : "VEC3"
        },
        {
            "bufferView" : 17,
            "componentType" : 5126,
            "count" : 24,
            "type" : "VEC3"
        },
        {
            "bufferView" : 18,
            "componentType" : 5126,
            "count" : 24,
            "type" : "VEC2"
        },
        {
            "bufferView" : 19,
            "componentType" : 5123,
            "count" : 36,
            "type" : "SCALAR"
        }
    ],
    "bufferViews" : [
        {
            "buffer" : 0,
            "byteLength" : 504,
            "byteOffset" : 0
        },
        {
            "buffer" : 0,
            "byteLength" : 504,
            "byteOffset" : 504
        },
        {
            "buffer" : 0,
            "byteLength" : 336,
            "byteOffset" : 1008
        },
        {
            "buffer" : 0,
            "byteLength" : 144,
            "byteOffset" : 1344
        },
        {
            "buffer" : 0,
            "byteLength" : 504,
            "byteOffset" : 1488
        },
        {
            "buffer" : 0,
            "byteLength" : 504,
            "byteOffset" : 1992
        },
        {
            "buffer" : 0,
            "byteLength" : 336,
            "byteOffset" : 2496
        },
        {
            "buffer" : 0,
            "byteLength" : 144,
            "byteOffset" : 2832
        },
        {
            "buffer" : 0,
            "byteLength" : 2304,
            "byteOffset" : 2976
        },
        {
            "buffer" : 0,
            "byteLength" : 2304,
            "byteOffset" : 5280
        },
        {
            "buffer" : 0,
            "byteLength" : 1536,
            "byteOffset" : 7584
        },
        {
            "buffer" : 0,
            "byteLength" : 744,
            "byteOffset" : 9120
        },
        {
            "buffer" : 0,
            "byteLength" : 1536,
            "byteOffset" : 9864
        },
        {
            "buffer" : 0,
            "byteLength" : 1536,
            "byteOffset" : 11400
        },
        {
            "buffer" : 0,
            "byteLength" : 1024,
            "byteOffset" : 12936
        },
        {
            "buffer" : 0,
            "byteLength" : 372,
            "byteOffset" : 13960
        },
        {
            "buffer" : 0,
            "byteLength" : 288,
            "byteOffset" : 14332
        },
        {
            "buffer" : 0,
            "byteLength" : 288,
            "byteOffset" : 14620
        },
        {
            "buffer" : 0,
            "byteLength" : 192,
            "byteOffset" : 14908
        },
        {
            "buffer" : 0,
            "byteLength" : 72,
            "byteOffset" : 15100
        }
    ],
    "buffers" : [
        {
            "byteLength" : 15172,
            "uri" : "cube.bin"
        }
    ]
}
