{
    "asset" : {
        "copyright" : "Dr.Santi Nuratch",
        "generator" : "Khronos Blender glTF 2.0 I/O",
        "version" : "2.0"
    },
    "scene" : 0,
    "scenes" : [
        {
            "extras" : {
                "glTF2ExportSettings" : {
                    "export_apply" : 1,
                    "export_copyright" : "Dr.Santi Nuratch",
                    "export_extras" : 1,
                    "export_format" : "GLTF_SEPARATE",
                    "export_selected" : 1
                }
            },
            "name" : "Scene",
            "nodes" : [
                0,
                1,
                2,
                3,
                4
            ]
        }
    ],
    "nodes" : [
        {
            "mesh" : 0,
            "name" : "CubeStaticGround",
            "scale" : [
                20,
                0.19999998807907104,
                20
            ],
            "translation" : [
                0,
                -0.22370290756225586,
                0
            ]
        },
        {
            "mesh" : 1,
            "name" : "CubeStaticWall.000",
            "rotation" : [
                0,
                -0.7071068286895752,
                0,
                0.7071068286895752
            ],
            "scale" : [
                0.30000001192092896,
                3,
                20.600000381469727
            ],
            "translation" : [
                0,
                2.5762970447540283,
                -20.299999237060547
            ]
        },
        {
            "mesh" : 2,
            "name" : "CubeStaticWall.001",
            "scale" : [
                0.30000001192092896,
                3,
                20
            ],
            "translation" : [
                -20.299999237060547,
                2.576296806335449,
                0
            ]
        },
        {
            "mesh" : 3,
            "name" : "CubeStaticWall.002",
            "rotation" : [
                0,
                0.70710688829422,
                0,
                0.7071066498756409
            ],
            "scale" : [
                0.30000001192092896,
                3,
                20.600000381469727
            ],
            "translation" : [
                3.6451394862524467e-06,
                2.5762970447540283,
                20.299999237060547
            ]
        },
        {
            "mesh" : 4,
            "name" : "CubeStaticWall.003",
            "rotation" : [
                0,
                1,
                0,
                -1.1924880638503055e-08
            ],
            "scale" : [
                0.30000001192092896,
                3,
                20
            ],
            "translation" : [
                20.299999237060547,
                2.576296806335449,
                -3.6820310924667865e-06
            ]
        }
    ],
    "materials" : [
        {
            "name" : "MaterialGround",
            "normalTexture" : {
                "index" : 0,
                "texCoord" : 0
            },
            "pbrMetallicRoughness" : {
                "baseColorTexture" : {
                    "index" : 1,
                    "texCoord" : 0
                },
                "metallicFactor" : 0,
                "roughnessFactor" : 0.8999999761581421
            }
        },
        {
            "name" : "MaterialGrass",
            "normalTexture" : {
                "index" : 2,
                "scale" : 0.30000001192092896,
                "texCoord" : 0
            },
            "pbrMetallicRoughness" : {
                "baseColorTexture" : {
                    "index" : 3,
                    "texCoord" : 0
                },
                "metallicFactor" : 0,
                "roughnessFactor" : 0.8999999761581421
            }
        },
        {
            "name" : "MaterialWall",
            "normalTexture" : {
                "index" : 4,
                "texCoord" : 0
            },
            "pbrMetallicRoughness" : {
                "baseColorTexture" : {
                    "index" : 5,
                    "texCoord" : 0
                },
                "metallicFactor" : 0,
                "roughnessFactor" : 0.8999999761581421
            }
        },
        {
            "name" : "Red",
            "pbrMetallicRoughness" : {
                "baseColorFactor" : [
                    0.8000000715255737,
                    0.003758177859708667,
                    0.006105868611484766,
                    1
                ],
                "metallicFactor" : 0,
                "roughnessFactor" : 0.5
            }
        },
        {
            "name" : "Green",
            "pbrMetallicRoughness" : {
                "baseColorFactor" : [
                    0.007726400624960661,
                    0.8000000715255737,
                    0.007641819305717945,
                    1
                ],
                "metallicFactor" : 0,
                "roughnessFactor" : 0.5
            }
        }
    ],
    "meshes" : [
        {
            "name" : "Cube.001",
            "primitives" : [
                {
                    "attributes" : {
                        "POSITION" : 0,
                        "NORMAL" : 1,
                        "TEXCOORD_0" : 2
                    },
                    "indices" : 3,
                    "material" : 0
                },
                {
                    "attributes" : {
                        "POSITION" : 4,
                        "NORMAL" : 5,
                        "TEXCOORD_0" : 6
                    },
                    "indices" : 7,
                    "material" : 1
                },
                {
                    "attributes" : {
                        "POSITION" : 8,
                        "NORMAL" : 9,
                        "TEXCOORD_0" : 10
                    },
                    "indices" : 11,
                    "material" : 2
                },
                {
                    "attributes" : {
                        "POSITION" : 12,
                        "NORMAL" : 13,
                        "TEXCOORD_0" : 14
                    },
                    "indices" : 15,
                    "material" : 3
                },
                {
                    "attributes" : {
                        "POSITION" : 16,
                        "NORMAL" : 17,
                        "TEXCOORD_0" : 18
                    },
                    "indices" : 19,
                    "material" : 4
                }
            ]
        },
        {
            "name" : "Cube.001",
            "primitives" : [
                {
                    "attributes" : {
                        "POSITION" : 20,
                        "NORMAL" : 21,
                        "TEXCOORD_0" : 22
                    },
                    "indices" : 23,
                    "material" : 2
                }
            ]
        },
        {
            "name" : "Cube.001",
            "primitives" : [
                {
                    "attributes" : {
                        "POSITION" : 24,
                        "NORMAL" : 25,
                        "TEXCOORD_0" : 26
                    },
                    "indices" : 23,
                    "material" : 2
                }
            ]
        },
        {
            "name" : "Cube.001",
            "primitives" : [
                {
                    "attributes" : {
                        "POSITION" : 27,
                        "NORMAL" : 28,
                        "TEXCOORD_0" : 29
                    },
                    "indices" : 23,
                    "material" : 2
                }
            ]
        },
        {
            "name" : "Cube.001",
            "primitives" : [
                {
                    "attributes" : {
                        "POSITION" : 30,
                        "NORMAL" : 31,
                        "TEXCOORD_0" : 32
                    },
                    "indices" : 23,
                    "material" : 2
                }
            ]
        }
    ],
    "textures" : [
        {
            "source" : 0
        },
        {
            "source" : 1
        },
        {
            "source" : 2
        },
        {
            "source" : 3
        },
        {
            "source" : 4
        },
        {
            "source" : 5
        }
    ],
    "images" : [
        {
            "mimeType" : "image/png",
            "name" : "brick_curve_normal_512.png",
            "uri" : "brick_curve_normal_512.png"
        },
        {
            "mimeType" : "image/png",
            "name" : "brick_curve_diffuse_512.png",
            "uri" : "brick_curve_diffuse_512.png"
        },
        {
            "mimeType" : "image/png",
            "name" : "brick_grass_diffuse_512.png",
            "uri" : "brick_grass_diffuse_512.png"
        },
        {
            "mimeType" : "image/png",
            "name" : "brick_grass_diffuse_512.png",
            "uri" : "brick_grass_diffuse_512.png"
        },
        {
            "mimeType" : "image/png",
            "name" : "brick_red_normal_512.png",
            "uri" : "brick_red_normal_512.png"
        },
        {
            "mimeType" : "image/png",
            "name" : "brick_red_diffuse_512.png",
            "uri" : "brick_red_diffuse_512.png"
        }
    ],
    "accessors" : [
        {
            "bufferView" : 0,
            "componentType" : 5126,
            "count" : 1122,
            "max" : [
                1,
                1,
                1
            ],
            "min" : [
                -1,
                -1,
                -1
            ],
            "type" : "VEC3"
        },
        {
            "bufferView" : 1,
            "componentType" : 5126,
            "count" : 1122,
            "type" : "VEC3"
        },
        {
            "bufferView" : 2,
            "componentType" : 5126,
            "count" : 1122,
            "type" : "VEC2"
        },
        {
            "bufferView" : 3,
            "componentType" : 5123,
            "count" : 5466,
            "type" : "SCALAR"
        },
        {
            "bufferView" : 4,
            "componentType" : 5126,
            "count" : 140,
            "max" : [
                0.875,
                1,
                1
            ],
            "min" : [
                -1,
                1,
                -1
            ],
            "type" : "VEC3"
        },
        {
            "bufferView" : 5,
            "componentType" : 5126,
            "count" : 140,
            "type" : "VEC3"
        },
        {
            "bufferView" : 6,
            "componentType" : 5126,
            "count" : 140,
            "type" : "VEC2"
        },
        {
            "bufferView" : 7,
            "componentType" : 5123,
            "count" : 408,
            "type" : "SCALAR"
        },
        {
            "bufferView" : 8,
            "componentType" : 5126,
            "count" : 91,
            "max" : [
                0.75,
                1,
                1
            ],
            "min" : [
                -1,
                1,
                -1
            ],
            "type" : "VEC3"
        },
        {
            "bufferView" : 9,
            "componentType" : 5126,
            "count" : 91,
            "type" : "VEC3"
        },
        {
            "bufferView" : 10,
            "componentType" : 5126,
            "count" : 91,
            "type" : "VEC2"
        },
        {
            "bufferView" : 11,
            "componentType" : 5123,
            "count" : 246,
            "type" : "SCALAR"
        },
        {
            "bufferView" : 12,
            "componentType" : 5126,
            "count" : 7,
            "max" : [
                1,
                1,
                0.125
            ],
            "min" : [
                0.75,
                1,
                -0.125
            ],
            "type" : "VEC3"
        },
        {
            "bufferView" : 13,
            "componentType" : 5126,
            "count" : 7,
            "type" : "VEC3"
        },
        {
            "bufferView" : 14,
            "componentType" : 5126,
            "count" : 7,
            "type" : "VEC2"
        },
        {
            "bufferView" : 15,
            "componentType" : 5123,
            "count" : 12,
            "type" : "SCALAR"
        },
        {
            "bufferView" : 16,
            "componentType" : 5126,
            "count" : 7,
            "max" : [
                0.125,
                1,
                1
            ],
            "min" : [
                -0.125,
                1,
                0.75
            ],
            "type" : "VEC3"
        },
        {
            "bufferView" : 17,
            "componentType" : 5126,
            "count" : 7,
            "type" : "VEC3"
        },
        {
            "bufferView" : 18,
            "componentType" : 5126,
            "count" : 7,
            "type" : "VEC2"
        },
        {
            "bufferView" : 19,
            "componentType" : 5123,
            "count" : 12,
            "type" : "SCALAR"
        },
        {
            "bufferView" : 20,
            "componentType" : 5126,
            "count" : 24,
            "max" : [
                1,
                1,
                1
            ],
            "min" : [
                -1,
                -1,
                -1
            ],
            "type" : "VEC3"
        },
        {
            "bufferView" : 21,
            "componentType" : 5126,
            "count" : 24,
            "type" : "VEC3"
        },
        {
            "bufferView" : 22,
            "componentType" : 5126,
            "count" : 24,
            "type" : "VEC2"
        },
        {
            "bufferView" : 23,
            "componentType" : 5123,
            "count" : 36,
            "type" : "SCALAR"
        },
        {
            "bufferView" : 24,
            "componentType" : 5126,
            "count" : 24,
            "max" : [
                1,
                1,
                1
            ],
            "min" : [
                -1,
                -1,
                -1
            ],
            "type" : "VEC3"
        },
        {
            "bufferView" : 25,
            "componentType" : 5126,
            "count" : 24,
            "type" : "VEC3"
        },
        {
            "bufferView" : 26,
            "componentType" : 5126,
            "count" : 24,
            "type" : "VEC2"
        },
        {
            "bufferView" : 27,
            "componentType" : 5126,
            "count" : 24,
            "max" : [
                1,
                1,
                1
            ],
            "min" : [
                -1,
                -1,
                -1
            ],
            "type" : "VEC3"
        },
        {
            "bufferView" : 28,
            "componentType" : 5126,
            "count" : 24,
            "type" : "VEC3"
        },
        {
            "bufferView" : 29,
            "componentType" : 5126,
            "count" : 24,
            "type" : "VEC2"
        },
        {
            "bufferView" : 30,
            "componentType" : 5126,
            "count" : 24,
            "max" : [
                1,
                1,
                1
            ],
            "min" : [
                -1,
                -1,
                -1
            ],
            "type" : "VEC3"
        },
        {
            "bufferView" : 31,
            "componentType" : 5126,
            "count" : 24,
            "type" : "VEC3"
        },
        {
            "bufferView" : 32,
            "componentType" : 5126,
            "count" : 24,
            "type" : "VEC2"
        }
    ],
    "bufferViews" : [
        {
            "buffer" : 0,
            "byteLength" : 13464,
            "byteOffset" : 0
        },
        {
            "buffer" : 0,
            "byteLength" : 13464,
            "byteOffset" : 13464
        },
        {
            "buffer" : 0,
            "byteLength" : 8976,
            "byteOffset" : 26928
        },
        {
            "buffer" : 0,
            "byteLength" : 10932,
            "byteOffset" : 35904
        },
        {
            "buffer" : 0,
            "byteLength" : 1680,
            "byteOffset" : 46836
        },
        {
            "buffer" : 0,
            "byteLength" : 1680,
            "byteOffset" : 48516
        },
        {
            "buffer" : 0,
            "byteLength" : 1120,
            "byteOffset" : 50196
        },
        {
            "buffer" : 0,
            "byteLength" : 816,
            "byteOffset" : 51316
        },
        {
            "buffer" : 0,
            "byteLength" : 1092,
            "byteOffset" : 52132
        },
        {
            "buffer" : 0,
            "byteLength" : 1092,
            "byteOffset" : 53224
        },
        {
            "buffer" : 0,
            "byteLength" : 728,
            "byteOffset" : 54316
        },
        {
            "buffer" : 0,
            "byteLength" : 492,
            "byteOffset" : 55044
        },
        {
            "buffer" : 0,
            "byteLength" : 84,
            "byteOffset" : 55536
        },
        {
            "buffer" : 0,
            "byteLength" : 84,
            "byteOffset" : 55620
        },
        {
            "buffer" : 0,
            "byteLength" : 56,
            "byteOffset" : 55704
        },
        {
            "buffer" : 0,
            "byteLength" : 24,
            "byteOffset" : 55760
        },
        {
            "buffer" : 0,
            "byteLength" : 84,
            "byteOffset" : 55784
        },
        {
            "buffer" : 0,
            "byteLength" : 84,
            "byteOffset" : 55868
        },
        {
            "buffer" : 0,
            "byteLength" : 56,
            "byteOffset" : 55952
        },
        {
            "buffer" : 0,
            "byteLength" : 24,
            "byteOffset" : 56008
        },
        {
            "buffer" : 0,
            "byteLength" : 288,
            "byteOffset" : 56032
        },
        {
            "buffer" : 0,
            "byteLength" : 288,
            "byteOffset" : 56320
        },
        {
            "buffer" : 0,
            "byteLength" : 192,
            "byteOffset" : 56608
        },
        {
            "buffer" : 0,
            "byteLength" : 72,
            "byteOffset" : 56800
        },
        {
            "buffer" : 0,
            "byteLength" : 288,
            "byteOffset" : 56872
        },
        {
            "buffer" : 0,
            "byteLength" : 288,
            "byteOffset" : 57160
        },
        {
            "buffer" : 0,
            "byteLength" : 192,
            "byteOffset" : 57448
        },
        {
            "buffer" : 0,
            "byteLength" : 288,
            "byteOffset" : 57640
        },
        {
            "buffer" : 0,
            "byteLength" : 288,
            "byteOffset" : 57928
        },
        {
            "buffer" : 0,
            "byteLength" : 192,
            "byteOffset" : 58216
        },
        {
            "buffer" : 0,
            "byteLength" : 288,
            "byteOffset" : 58408
        },
        {
            "buffer" : 0,
            "byteLength" : 288,
            "byteOffset" : 58696
        },
        {
            "buffer" : 0,
            "byteLength" : 192,
            "byteOffset" : 58984
        }
    ],
    "buffers" : [
        {
            "byteLength" : 59176,
            "uri" : "scene001.bin"
        }
    ]
}
