{
    "asset" : {
        "copyright" : "dr.santi nuratch",
        "generator" : "Khronos Blender glTF 2.0 I/O",
        "version" : "2.0"
    },
    "scene" : 0,
    "scenes" : [
        {
            "extras" : {
                "glTF2ExportSettings" : {
                    "export_apply" : 1,
                    "export_copyright" : "dr.santi nuratch",
                    "export_extras" : 1,
                    "export_format" : "GLTF_SEPARATE",
                    "export_selected" : 1
                }
            },
            "name" : "Scene",
            "nodes" : [
                0,
                1,
                2,
                3,
                4,
                5,
                6,
                7,
                8,
                9
            ]
        }
    ],
    "nodes" : [
        {
            "mesh" : 0,
            "name" : "Cube",
            "rotation" : [
                0.3494074046611786,
                -0.8142239451408386,
                0.21252581477165222,
                0.4120520055294037
            ],
            "translation" : [
                0,
                4.499258041381836,
                29.05695343017578
            ]
        },
        {
            "mesh" : 1,
            "name" : "StaticCube",
            "scale" : [
                20,
                0.05000000074505806,
                50
            ],
            "translation" : [
                0,
                -0.13172611594200134,
                0
            ]
        },
        {
            "mesh" : 2,
            "name" : "StaticCube.001",
            "rotation" : [
                0,
                0,
                -0.7071068286895752,
                0.7071068286895752
            ],
            "scale" : [
                10,
                1,
                50
            ],
            "translation" : [
                -20,
                10,
                0
            ]
        },
        {
            "mesh" : 3,
            "name" : "StaticCube.003",
            "rotation" : [
                0.7071068286895752,
                -0.7071068286895752,
                0,
                1.1520234721729139e-07
            ],
            "scale" : [
                10,
                1,
                50
            ],
            "translation" : [
                20,
                10,
                0
            ]
        },
        {
            "mesh" : 4,
            "name" : "StaticCube.002",
            "rotation" : [
                -0.5528382062911987,
                0,
                0,
                0.8332886099815369
            ],
            "scale" : [
                17.405393600463867,
                8.19053840637207,
                1
            ],
            "translation" : [
                0,
                1.8752398490905762,
                -27.92572593688965
            ]
        },
        {
            "mesh" : 5,
            "name" : "Sphere",
            "translation" : [
                -3.165348768234253,
                8.719719886779785,
                31.17058563232422
            ]
        },
        {
            "mesh" : 6,
            "name" : "Cube.001",
            "rotation" : [
                -0.39291948080062866,
                0.6090249419212341,
                -0.4940500259399414,
                0.48022642731666565
            ],
            "translation" : [
                -0.32916557788848877,
                14.283212661743164,
                18.409488677978516
            ]
        },
        {
            "mesh" : 7,
            "name" : "Sphere.001",
            "rotation" : [
                0.05686406418681145,
                -0.731080949306488,
                0.412761390209198,
                0.5402917265892029
            ],
            "translation" : [
                -2.8361830711364746,
                14.484142303466797,
                13.313053131103516
            ]
        },
        {
            "mesh" : 8,
            "name" : "Cube.002",
            "rotation" : [
                0.006801370065659285,
                -0.21537695825099945,
                0.9685688614845276,
                0.12426155060529709
            ],
            "translation" : [
                7.798550605773926,
                16.904531478881836,
                32.12498092651367
            ]
        },
        {
            "mesh" : 9,
            "name" : "Sphere.002",
            "rotation" : [
                -0.7834742069244385,
                -0.32454922795295715,
                0.3029753267765045,
                0.4347895383834839
            ],
            "translation" : [
                5.315593719482422,
                13.749502182006836,
                28.102558135986328
            ]
        }
    ],
    "materials" : [
        {
            "name" : "Material",
            "pbrMetallicRoughness" : {
                "baseColorFactor" : [
                    0.8000000715255737,
                    0,
                    0.2923707962036133,
                    1
                ],
                "metallicFactor" : 0.20000000298023224,
                "roughnessFactor" : 0.5
            }
        },
        {
            "name" : "Green",
            "pbrMetallicRoughness" : {
                "baseColorFactor" : [
                    0.03249483183026314,
                    0.04202428460121155,
                    0.025893544778227806,
                    1
                ],
                "metallicFactor" : 0,
                "roughnessFactor" : 0.5
            }
        },
        {
            "name" : "Orange",
            "pbrMetallicRoughness" : {
                "baseColorFactor" : [
                    0.8000000715255737,
                    0.22273162007331848,
                    0.011714905500411987,
                    1
                ],
                "metallicFactor" : 0,
                "roughnessFactor" : 0.5
            }
        },
        {
            "name" : "Blue",
            "pbrMetallicRoughness" : {
                "baseColorFactor" : [
                    0.01137519720941782,
                    0.16192521154880524,
                    0.8000000715255737,
                    1
                ],
                "metallicFactor" : 0,
                "roughnessFactor" : 0.5
            }
        }
    ],
    "meshes" : [
        {
            "name" : "Cube.009",
            "primitives" : [
                {
                    "attributes" : {
                        "POSITION" : 0,
                        "NORMAL" : 1,
                        "TEXCOORD_0" : 2
                    },
                    "indices" : 3,
                    "material" : 0
                }
            ]
        },
        {
            "name" : "Cube.009",
            "primitives" : [
                {
                    "attributes" : {
                        "POSITION" : 4,
                        "NORMAL" : 5,
                        "TEXCOORD_0" : 6
                    },
                    "indices" : 7,
                    "material" : 1
                }
            ]
        },
        {
            "name" : "Cube.009",
            "primitives" : [
                {
                    "attributes" : {
                        "POSITION" : 8,
                        "NORMAL" : 9,
                        "TEXCOORD_0" : 10
                    },
                    "indices" : 11,
                    "material" : 2
                }
            ]
        },
        {
            "name" : "Cube.009",
            "primitives" : [
                {
                    "attributes" : {
                        "POSITION" : 12,
                        "NORMAL" : 13,
                        "TEXCOORD_0" : 14
                    },
                    "indices" : 15,
                    "material" : 2
                }
            ]
        },
        {
            "name" : "Cube.009",
            "primitives" : [
                {
                    "attributes" : {
                        "POSITION" : 16,
                        "NORMAL" : 17,
                        "TEXCOORD_0" : 18
                    },
                    "indices" : 19,
                    "material" : 3
                }
            ]
        },
        {
            "name" : "Sphere.003",
            "primitives" : [
                {
                    "attributes" : {
                        "POSITION" : 20,
                        "NORMAL" : 21,
                        "TEXCOORD_0" : 22
                    },
                    "indices" : 23,
                    "material" : 0
                }
            ]
        },
        {
            "name" : "Cube.009",
            "primitives" : [
                {
                    "attributes" : {
                        "POSITION" : 24,
                        "NORMAL" : 25,
                        "TEXCOORD_0" : 26
                    },
                    "indices" : 27,
                    "material" : 0
                }
            ]
        },
        {
            "name" : "Sphere.003",
            "primitives" : [
                {
                    "attributes" : {
                        "POSITION" : 28,
                        "NORMAL" : 29,
                        "TEXCOORD_0" : 30
                    },
                    "indices" : 31,
                    "material" : 0
                }
            ]
        },
        {
            "name" : "Cube.009",
            "primitives" : [
                {
                    "attributes" : {
                        "POSITION" : 32,
                        "NORMAL" : 33,
                        "TEXCOORD_0" : 34
                    },
                    "indices" : 35,
                    "material" : 0
                }
            ]
        },
        {
            "name" : "Sphere.003",
            "primitives" : [
                {
                    "attributes" : {
                        "POSITION" : 36,
                        "NORMAL" : 37,
                        "TEXCOORD_0" : 38
                    },
                    "indices" : 39,
                    "material" : 0
                }
            ]
        }
    ],
    "accessors" : [
        {
            "bufferView" : 0,
            "componentType" : 5126,
            "count" : 24,
            "max" : [
                1,
                1,
                1
            ],
            "min" : [
                -1,
                -1,
                -1
            ],
            "type" : "VEC3"
        },
        {
            "bufferView" : 1,
            "componentType" : 5126,
            "count" : 24,
            "type" : "VEC3"
        },
        {
            "bufferView" : 2,
            "componentType" : 5126,
            "count" : 24,
            "type" : "VEC2"
        },
        {
            "bufferView" : 3,
            "componentType" : 5123,
            "count" : 36,
            "type" : "SCALAR"
        },
        {
            "bufferView" : 4,
            "componentType" : 5126,
            "count" : 24,
            "max" : [
                1,
                1,
                1
            ],
            "min" : [
                -1,
                -1,
                -1
            ],
            "type" : "VEC3"
        },
        {
            "bufferView" : 5,
            "componentType" : 5126,
            "count" : 24,
            "type" : "VEC3"
        },
        {
            "bufferView" : 6,
            "componentType" : 5126,
            "count" : 24,
            "type" : "VEC2"
        },
        {
            "bufferView" : 7,
            "componentType" : 5123,
            "count" : 36,
            "type" : "SCALAR"
        },
        {
            "bufferView" : 8,
            "componentType" : 5126,
            "count" : 24,
            "max" : [
                1,
                1,
                1
            ],
            "min" : [
                -1,
                -1,
                -1
            ],
            "type" : "VEC3"
        },
        {
            "bufferView" : 9,
            "componentType" : 5126,
            "count" : 24,
            "type" : "VEC3"
        },
        {
            "bufferView" : 10,
            "componentType" : 5126,
            "count" : 24,
            "type" : "VEC2"
        },
        {
            "bufferView" : 11,
            "componentType" : 5123,
            "count" : 36,
            "type" : "SCALAR"
        },
        {
            "bufferView" : 12,
            "componentType" : 5126,
            "count" : 24,
            "max" : [
                1,
                1,
                1
            ],
            "min" : [
                -1,
                -1,
                -1
            ],
            "type" : "VEC3"
        },
        {
            "bufferView" : 13,
            "componentType" : 5126,
            "count" : 24,
            "type" : "VEC3"
        },
        {
            "bufferView" : 14,
            "componentType" : 5126,
            "count" : 24,
            "type" : "VEC2"
        },
        {
            "bufferView" : 15,
            "componentType" : 5123,
            "count" : 36,
            "type" : "SCALAR"
        },
        {
            "bufferView" : 16,
            "componentType" : 5126,
            "count" : 24,
            "max" : [
                1,
                1,
                1
            ],
            "min" : [
                -1,
                -1,
                -1
            ],
            "type" : "VEC3"
        },
        {
            "bufferView" : 17,
            "componentType" : 5126,
            "count" : 24,
            "type" : "VEC3"
        },
        {
            "bufferView" : 18,
            "componentType" : 5126,
            "count" : 24,
            "type" : "VEC2"
        },
        {
            "bufferView" : 19,
            "componentType" : 5123,
            "count" : 36,
            "type" : "SCALAR"
        },
        {
            "bufferView" : 20,
            "componentType" : 5126,
            "count" : 1984,
            "max" : [
                1.000000238418579,
                1,
                1.0000003576278687
            ],
            "min" : [
                -0.9999998211860657,
                -1,
                -1
            ],
            "type" : "VEC3"
        },
        {
            "bufferView" : 21,
            "componentType" : 5126,
            "count" : 1984,
            "type" : "VEC3"
        },
        {
            "bufferView" : 22,
            "componentType" : 5126,
            "count" : 1984,
            "type" : "VEC2"
        },
        {
            "bufferView" : 23,
            "componentType" : 5123,
            "count" : 2880,
            "type" : "SCALAR"
        },
        {
            "bufferView" : 24,
            "componentType" : 5126,
            "count" : 24,
            "max" : [
                1,
                1,
                1
            ],
            "min" : [
                -1,
                -1,
                -1
            ],
            "type" : "VEC3"
        },
        {
            "bufferView" : 25,
            "componentType" : 5126,
            "count" : 24,
            "type" : "VEC3"
        },
        {
            "bufferView" : 26,
            "componentType" : 5126,
            "count" : 24,
            "type" : "VEC2"
        },
        {
            "bufferView" : 27,
            "componentType" : 5123,
            "count" : 36,
            "type" : "SCALAR"
        },
        {
            "bufferView" : 28,
            "componentType" : 5126,
            "count" : 1984,
            "max" : [
                1.000000238418579,
                1,
                1.0000003576278687
            ],
            "min" : [
                -0.9999998211860657,
                -1,
                -1
            ],
            "type" : "VEC3"
        },
        {
            "bufferView" : 29,
            "componentType" : 5126,
            "count" : 1984,
            "type" : "VEC3"
        },
        {
            "bufferView" : 30,
            "componentType" : 5126,
            "count" : 1984,
            "type" : "VEC2"
        },
        {
            "bufferView" : 31,
            "componentType" : 5123,
            "count" : 2880,
            "type" : "SCALAR"
        },
        {
            "bufferView" : 32,
            "componentType" : 5126,
            "count" : 24,
            "max" : [
                1,
                1,
                1
            ],
            "min" : [
                -1,
                -1,
                -1
            ],
            "type" : "VEC3"
        },
        {
            "bufferView" : 33,
            "componentType" : 5126,
            "count" : 24,
            "type" : "VEC3"
        },
        {
            "bufferView" : 34,
            "componentType" : 5126,
            "count" : 24,
            "type" : "VEC2"
        },
        {
            "bufferView" : 35,
            "componentType" : 5123,
            "count" : 36,
            "type" : "SCALAR"
        },
        {
            "bufferView" : 36,
            "componentType" : 5126,
            "count" : 1984,
            "max" : [
                1.000000238418579,
                1,
                1.0000003576278687
            ],
            "min" : [
                -0.9999998211860657,
                -1,
                -1
            ],
            "type" : "VEC3"
        },
        {
            "bufferView" : 37,
            "componentType" : 5126,
            "count" : 1984,
            "type" : "VEC3"
        },
        {
            "bufferView" : 38,
            "componentType" : 5126,
            "count" : 1984,
            "type" : "VEC2"
        },
        {
            "bufferView" : 39,
            "componentType" : 5123,
            "count" : 2880,
            "type" : "SCALAR"
        }
    ],
    "bufferViews" : [
        {
            "buffer" : 0,
            "byteLength" : 288,
            "byteOffset" : 0
        },
        {
            "buffer" : 0,
            "byteLength" : 288,
            "byteOffset" : 288
        },
        {
            "buffer" : 0,
            "byteLength" : 192,
            "byteOffset" : 576
        },
        {
            "buffer" : 0,
            "byteLength" : 72,
            "byteOffset" : 768
        },
        {
            "buffer" : 0,
            "byteLength" : 288,
            "byteOffset" : 840
        },
        {
            "buffer" : 0,
            "byteLength" : 288,
            "byteOffset" : 1128
        },
        {
            "buffer" : 0,
            "byteLength" : 192,
            "byteOffset" : 1416
        },
        {
            "buffer" : 0,
            "byteLength" : 72,
            "byteOffset" : 1608
        },
        {
            "buffer" : 0,
            "byteLength" : 288,
            "byteOffset" : 1680
        },
        {
            "buffer" : 0,
            "byteLength" : 288,
            "byteOffset" : 1968
        },
        {
            "buffer" : 0,
            "byteLength" : 192,
            "byteOffset" : 2256
        },
        {
            "buffer" : 0,
            "byteLength" : 72,
            "byteOffset" : 2448
        },
        {
            "buffer" : 0,
            "byteLength" : 288,
            "byteOffset" : 2520
        },
        {
            "buffer" : 0,
            "byteLength" : 288,
            "byteOffset" : 2808
        },
        {
            "buffer" : 0,
            "byteLength" : 192,
            "byteOffset" : 3096
        },
        {
            "buffer" : 0,
            "byteLength" : 72,
            "byteOffset" : 3288
        },
        {
            "buffer" : 0,
            "byteLength" : 288,
            "byteOffset" : 3360
        },
        {
            "buffer" : 0,
            "byteLength" : 288,
            "byteOffset" : 3648
        },
        {
            "buffer" : 0,
            "byteLength" : 192,
            "byteOffset" : 3936
        },
        {
            "buffer" : 0,
            "byteLength" : 72,
            "byteOffset" : 4128
        },
        {
            "buffer" : 0,
            "byteLength" : 23808,
            "byteOffset" : 4200
        },
        {
            "buffer" : 0,
            "byteLength" : 23808,
            "byteOffset" : 28008
        },
        {
            "buffer" : 0,
            "byteLength" : 15872,
            "byteOffset" : 51816
        },
        {
            "buffer" : 0,
            "byteLength" : 5760,
            "byteOffset" : 67688
        },
        {
            "buffer" : 0,
            "byteLength" : 288,
            "byteOffset" : 73448
        },
        {
            "buffer" : 0,
            "byteLength" : 288,
            "byteOffset" : 73736
        },
        {
            "buffer" : 0,
            "byteLength" : 192,
            "byteOffset" : 74024
        },
        {
            "buffer" : 0,
            "byteLength" : 72,
            "byteOffset" : 74216
        },
        {
            "buffer" : 0,
            "byteLength" : 23808,
            "byteOffset" : 74288
        },
        {
            "buffer" : 0,
            "byteLength" : 23808,
            "byteOffset" : 98096
        },
        {
            "buffer" : 0,
            "byteLength" : 15872,
            "byteOffset" : 121904
        },
        {
            "buffer" : 0,
            "byteLength" : 5760,
            "byteOffset" : 137776
        },
        {
            "buffer" : 0,
            "byteLength" : 288,
            "byteOffset" : 143536
        },
        {
            "buffer" : 0,
            "byteLength" : 288,
            "byteOffset" : 143824
        },
        {
            "buffer" : 0,
            "byteLength" : 192,
            "byteOffset" : 144112
        },
        {
            "buffer" : 0,
            "byteLength" : 72,
            "byteOffset" : 144304
        },
        {
            "buffer" : 0,
            "byteLength" : 23808,
            "byteOffset" : 144376
        },
        {
            "buffer" : 0,
            "byteLength" : 23808,
            "byteOffset" : 168184
        },
        {
            "buffer" : 0,
            "byteLength" : 15872,
            "byteOffset" : 191992
        },
        {
            "buffer" : 0,
            "byteLength" : 5760,
            "byteOffset" : 207864
        }
    ],
    "buffers" : [
        {
            "byteLength" : 213624,
            "uri" : "simple.bin"
        }
    ]
}
