{
    "asset" : {
        "generator" : "Khronos Blender glTF 2.0 I/O",
        "version" : "2.0"
    },
    "scene" : 0,
    "scenes" : [
        {
            "name" : "Scene",
            "nodes" : [
                0,
                1,
                2,
                3,
                4,
                5,
                6,
                7,
                8,
                9
            ]
        }
    ],
    "nodes" : [
        {
            "mesh" : 0,
            "name" : "Sphere",
            "scale" : [
                0.16947758197784424,
                0.16947758197784424,
                0.16947758197784424
            ],
            "translation" : [
                0.020310912281274796,
                4.719994068145752,
                0
            ]
        },
        {
            "mesh" : 1,
            "name" : "Sphere.001",
            "scale" : [
                0.16947758197784424,
                0.16947758197784424,
                0.16947758197784424
            ],
            "translation" : [
                0.4484140872955322,
                4.719994068145752,
                0
            ]
        },
        {
            "mesh" : 2,
            "name" : "Sphere.002",
            "scale" : [
                0.16947758197784424,
                0.16947758197784424,
                0.16947758197784424
            ],
            "translation" : [
                -0.37109771370887756,
                4.719994068145752,
                0
            ]
        },
        {
            "mesh" : 3,
            "name" : "Sphere.003",
            "scale" : [
                0.16947758197784424,
                0.16947758197784424,
                0.16947758197784424
            ],
            "translation" : [
                0.020310912281274796,
                5.258181095123291,
                0
            ]
        },
        {
            "mesh" : 4,
            "name" : "Sphere.004",
            "scale" : [
                0.16947758197784424,
                0.16947758197784424,
                0.16947758197784424
            ],
            "translation" : [
                0.10593155026435852,
                6.028766632080078,
                0
            ]
        },
        {
            "mesh" : 5,
            "name" : "Sphere.005",
            "scale" : [
                0.16947758197784424,
                0.16947758197784424,
                0.16947758197784424
            ],
            "translation" : [
                -0.057005465030670166,
                2.5799381732940674,
                0
            ]
        },
        {
            "mesh" : 6,
            "name" : "Sphere.006",
            "scale" : [
                0.16947758197784424,
                0.16947758197784424,
                0.16947758197784424
            ],
            "translation" : [
                0.37109771370887756,
                2.606680154800415,
                0
            ]
        },
        {
            "mesh" : 7,
            "name" : "Sphere.007",
            "scale" : [
                0.16947758197784424,
                0.16947758197784424,
                0.16947758197784424
            ],
            "translation" : [
                -0.4484140872955322,
                2.606680154800415,
                0
            ]
        },
        {
            "mesh" : 8,
            "name" : "Sphere.008",
            "scale" : [
                0.16947758197784424,
                0.16947758197784424,
                0.16947758197784424
            ],
            "translation" : [
                -0.057005465030670166,
                3.144867420196533,
                0
            ]
        },
        {
            "mesh" : 9,
            "name" : "Sphere.009",
            "scale" : [
                0.16947758197784424,
                0.16947758197784424,
                0.16947758197784424
            ],
            "translation" : [
                0.028615174815058708,
                3.915452718734741,
                0
            ]
        }
    ],
    "materials" : [
        {
            "name" : "Green",
            "pbrMetallicRoughness" : {
                "baseColorFactor" : [
                    0.03536759689450264,
                    0.5814635157585144,
                    0.01812777668237686,
                    1
                ],
                "metallicFactor" : 0,
                "roughnessFactor" : 0.5
            }
        },
        {
            "name" : "Material.001",
            "pbrMetallicRoughness" : {
                "baseColorFactor" : [
                    0.8000000715255737,
                    0.15579327940940857,
                    0.02821909636259079,
                    1
                ],
                "metallicFactor" : 0.5,
                "roughnessFactor" : 0.20000000298023224
            }
        },
        {
            "name" : "Pink",
            "pbrMetallicRoughness" : {
                "baseColorFactor" : [
                    0.8000000715255737,
                    0.027876468375325203,
                    0.7199363112449646,
                    1
                ],
                "metallicFactor" : 0,
                "roughnessFactor" : 0.5
            }
        },
        {
            "name" : "Yellow",
            "pbrMetallicRoughness" : {
                "baseColorFactor" : [
                    0.8000000715255737,
                    0.7618905901908875,
                    0.006108928006142378,
                    1
                ],
                "metallicFactor" : 0,
                "roughnessFactor" : 0.5
            }
        },
        {
            "name" : "Blue",
            "pbrMetallicRoughness" : {
                "baseColorFactor" : [
                    0.007987720891833305,
                    0.06890613585710526,
                    0.8000000715255737,
                    1
                ],
                "metallicFactor" : 0,
                "roughnessFactor" : 0.5
            }
        }
    ],
    "meshes" : [
        {
            "name" : "Sphere.022",
            "primitives" : [
                {
                    "attributes" : {
                        "POSITION" : 0,
                        "NORMAL" : 1,
                        "TEXCOORD_0" : 2
                    },
                    "indices" : 3,
                    "material" : 0
                }
            ]
        },
        {
            "name" : "Sphere.022",
            "primitives" : [
                {
                    "attributes" : {
                        "POSITION" : 4,
                        "NORMAL" : 5,
                        "TEXCOORD_0" : 6
                    },
                    "indices" : 7,
                    "material" : 1
                }
            ]
        },
        {
            "name" : "Sphere.022",
            "primitives" : [
                {
                    "attributes" : {
                        "POSITION" : 8,
                        "NORMAL" : 9,
                        "TEXCOORD_0" : 10
                    },
                    "indices" : 11,
                    "material" : 2
                }
            ]
        },
        {
            "name" : "Sphere.022",
            "primitives" : [
                {
                    "attributes" : {
                        "POSITION" : 12,
                        "NORMAL" : 13,
                        "TEXCOORD_0" : 14
                    },
                    "indices" : 15,
                    "material" : 3
                }
            ]
        },
        {
            "name" : "Sphere.022",
            "primitives" : [
                {
                    "attributes" : {
                        "POSITION" : 16,
                        "NORMAL" : 17,
                        "TEXCOORD_0" : 18
                    },
                    "indices" : 19,
                    "material" : 0
                }
            ]
        },
        {
            "name" : "Sphere.022",
            "primitives" : [
                {
                    "attributes" : {
                        "POSITION" : 20,
                        "NORMAL" : 21,
                        "TEXCOORD_0" : 22
                    },
                    "indices" : 23,
                    "material" : 3
                }
            ]
        },
        {
            "name" : "Sphere.022",
            "primitives" : [
                {
                    "attributes" : {
                        "POSITION" : 24,
                        "NORMAL" : 25,
                        "TEXCOORD_0" : 26
                    },
                    "indices" : 27,
                    "material" : 1
                }
            ]
        },
        {
            "name" : "Sphere.022",
            "primitives" : [
                {
                    "attributes" : {
                        "POSITION" : 28,
                        "NORMAL" : 29,
                        "TEXCOORD_0" : 30
                    },
                    "indices" : 31,
                    "material" : 4
                }
            ]
        },
        {
            "name" : "Sphere.022",
            "primitives" : [
                {
                    "attributes" : {
                        "POSITION" : 32,
                        "NORMAL" : 33,
                        "TEXCOORD_0" : 34
                    },
                    "indices" : 35,
                    "material" : 2
                }
            ]
        },
        {
            "name" : "Sphere.022",
            "primitives" : [
                {
                    "attributes" : {
                        "POSITION" : 36,
                        "NORMAL" : 37,
                        "TEXCOORD_0" : 38
                    },
                    "indices" : 39,
                    "material" : 4
                }
            ]
        }
    ],
    "accessors" : [
        {
            "bufferView" : 0,
            "componentType" : 5126,
            "count" : 559,
            "max" : [
                1.000000238418579,
                1,
                1.0000003576278687
            ],
            "min" : [
                -0.9999998211860657,
                -1,
                -1
            ],
            "type" : "VEC3"
        },
        {
            "bufferView" : 1,
            "componentType" : 5126,
            "count" : 559,
            "type" : "VEC3"
        },
        {
            "bufferView" : 2,
            "componentType" : 5126,
            "count" : 559,
            "type" : "VEC2"
        },
        {
            "bufferView" : 3,
            "componentType" : 5123,
            "count" : 2880,
            "type" : "SCALAR"
        },
        {
            "bufferView" : 4,
            "componentType" : 5126,
            "count" : 559,
            "max" : [
                1.000000238418579,
                1,
                1.0000003576278687
            ],
            "min" : [
                -0.9999998211860657,
                -1,
                -1
            ],
            "type" : "VEC3"
        },
        {
            "bufferView" : 5,
            "componentType" : 5126,
            "count" : 559,
            "type" : "VEC3"
        },
        {
            "bufferView" : 6,
            "componentType" : 5126,
            "count" : 559,
            "type" : "VEC2"
        },
        {
            "bufferView" : 7,
            "componentType" : 5123,
            "count" : 2880,
            "type" : "SCALAR"
        },
        {
            "bufferView" : 8,
            "componentType" : 5126,
            "count" : 559,
            "max" : [
                1.000000238418579,
                1,
                1.0000003576278687
            ],
            "min" : [
                -0.9999998211860657,
                -1,
                -1
            ],
            "type" : "VEC3"
        },
        {
            "bufferView" : 9,
            "componentType" : 5126,
            "count" : 559,
            "type" : "VEC3"
        },
        {
            "bufferView" : 10,
            "componentType" : 5126,
            "count" : 559,
            "type" : "VEC2"
        },
        {
            "bufferView" : 11,
            "componentType" : 5123,
            "count" : 2880,
            "type" : "SCALAR"
        },
        {
            "bufferView" : 12,
            "componentType" : 5126,
            "count" : 559,
            "max" : [
                1.000000238418579,
                1,
                1.0000003576278687
            ],
            "min" : [
                -0.9999998211860657,
                -1,
                -1
            ],
            "type" : "VEC3"
        },
        {
            "bufferView" : 13,
            "componentType" : 5126,
            "count" : 559,
            "type" : "VEC3"
        },
        {
            "bufferView" : 14,
            "componentType" : 5126,
            "count" : 559,
            "type" : "VEC2"
        },
        {
            "bufferView" : 15,
            "componentType" : 5123,
            "count" : 2880,
            "type" : "SCALAR"
        },
        {
            "bufferView" : 16,
            "componentType" : 5126,
            "count" : 559,
            "max" : [
                1.000000238418579,
                1,
                1.0000003576278687
            ],
            "min" : [
                -0.9999998211860657,
                -1,
                -1
            ],
            "type" : "VEC3"
        },
        {
            "bufferView" : 17,
            "componentType" : 5126,
            "count" : 559,
            "type" : "VEC3"
        },
        {
            "bufferView" : 18,
            "componentType" : 5126,
            "count" : 559,
            "type" : "VEC2"
        },
        {
            "bufferView" : 19,
            "componentType" : 5123,
            "count" : 2880,
            "type" : "SCALAR"
        },
        {
            "bufferView" : 20,
            "componentType" : 5126,
            "count" : 559,
            "max" : [
                1.000000238418579,
                1,
                1.0000003576278687
            ],
            "min" : [
                -0.9999998211860657,
                -1,
                -1
            ],
            "type" : "VEC3"
        },
        {
            "bufferView" : 21,
            "componentType" : 5126,
            "count" : 559,
            "type" : "VEC3"
        },
        {
            "bufferView" : 22,
            "componentType" : 5126,
            "count" : 559,
            "type" : "VEC2"
        },
        {
            "bufferView" : 23,
            "componentType" : 5123,
            "count" : 2880,
            "type" : "SCALAR"
        },
        {
            "bufferView" : 24,
            "componentType" : 5126,
            "count" : 559,
            "max" : [
                1.000000238418579,
                1,
                1.0000003576278687
            ],
            "min" : [
                -0.9999998211860657,
                -1,
                -1
            ],
            "type" : "VEC3"
        },
        {
            "bufferView" : 25,
            "componentType" : 5126,
            "count" : 559,
            "type" : "VEC3"
        },
        {
            "bufferView" : 26,
            "componentType" : 5126,
            "count" : 559,
            "type" : "VEC2"
        },
        {
            "bufferView" : 27,
            "componentType" : 5123,
            "count" : 2880,
            "type" : "SCALAR"
        },
        {
            "bufferView" : 28,
            "componentType" : 5126,
            "count" : 559,
            "max" : [
                1.000000238418579,
                1,
                1.0000003576278687
            ],
            "min" : [
                -0.9999998211860657,
                -1,
                -1
            ],
            "type" : "VEC3"
        },
        {
            "bufferView" : 29,
            "componentType" : 5126,
            "count" : 559,
            "type" : "VEC3"
        },
        {
            "bufferView" : 30,
            "componentType" : 5126,
            "count" : 559,
            "type" : "VEC2"
        },
        {
            "bufferView" : 31,
            "componentType" : 5123,
            "count" : 2880,
            "type" : "SCALAR"
        },
        {
            "bufferView" : 32,
            "componentType" : 5126,
            "count" : 559,
            "max" : [
                1.000000238418579,
                1,
                1.0000003576278687
            ],
            "min" : [
                -0.9999998211860657,
                -1,
                -1
            ],
            "type" : "VEC3"
        },
        {
            "bufferView" : 33,
            "componentType" : 5126,
            "count" : 559,
            "type" : "VEC3"
        },
        {
            "bufferView" : 34,
            "componentType" : 5126,
            "count" : 559,
            "type" : "VEC2"
        },
        {
            "bufferView" : 35,
            "componentType" : 5123,
            "count" : 2880,
            "type" : "SCALAR"
        },
        {
            "bufferView" : 36,
            "componentType" : 5126,
            "count" : 559,
            "max" : [
                1.000000238418579,
                1,
                1.0000003576278687
            ],
            "min" : [
                -0.9999998211860657,
                -1,
                -1
            ],
            "type" : "VEC3"
        },
        {
            "bufferView" : 37,
            "componentType" : 5126,
            "count" : 559,
            "type" : "VEC3"
        },
        {
            "bufferView" : 38,
            "componentType" : 5126,
            "count" : 559,
            "type" : "VEC2"
        },
        {
            "bufferView" : 39,
            "componentType" : 5123,
            "count" : 2880,
            "type" : "SCALAR"
        }
    ],
    "bufferViews" : [
        {
            "buffer" : 0,
            "byteLength" : 6708,
            "byteOffset" : 0
        },
        {
            "buffer" : 0,
            "byteLength" : 6708,
            "byteOffset" : 6708
        },
        {
            "buffer" : 0,
            "byteLength" : 4472,
            "byteOffset" : 13416
        },
        {
            "buffer" : 0,
            "byteLength" : 5760,
            "byteOffset" : 17888
        },
        {
            "buffer" : 0,
            "byteLength" : 6708,
            "byteOffset" : 23648
        },
        {
            "buffer" : 0,
            "byteLength" : 6708,
            "byteOffset" : 30356
        },
        {
            "buffer" : 0,
            "byteLength" : 4472,
            "byteOffset" : 37064
        },
        {
            "buffer" : 0,
            "byteLength" : 5760,
            "byteOffset" : 41536
        },
        {
            "buffer" : 0,
            "byteLength" : 6708,
            "byteOffset" : 47296
        },
        {
            "buffer" : 0,
            "byteLength" : 6708,
            "byteOffset" : 54004
        },
        {
            "buffer" : 0,
            "byteLength" : 4472,
            "byteOffset" : 60712
        },
        {
            "buffer" : 0,
            "byteLength" : 5760,
            "byteOffset" : 65184
        },
        {
            "buffer" : 0,
            "byteLength" : 6708,
            "byteOffset" : 70944
        },
        {
            "buffer" : 0,
            "byteLength" : 6708,
            "byteOffset" : 77652
        },
        {
            "buffer" : 0,
            "byteLength" : 4472,
            "byteOffset" : 84360
        },
        {
            "buffer" : 0,
            "byteLength" : 5760,
            "byteOffset" : 88832
        },
        {
            "buffer" : 0,
            "byteLength" : 6708,
            "byteOffset" : 94592
        },
        {
            "buffer" : 0,
            "byteLength" : 6708,
            "byteOffset" : 101300
        },
        {
            "buffer" : 0,
            "byteLength" : 4472,
            "byteOffset" : 108008
        },
        {
            "buffer" : 0,
            "byteLength" : 5760,
            "byteOffset" : 112480
        },
        {
            "buffer" : 0,
            "byteLength" : 6708,
            "byteOffset" : 118240
        },
        {
            "buffer" : 0,
            "byteLength" : 6708,
            "byteOffset" : 124948
        },
        {
            "buffer" : 0,
            "byteLength" : 4472,
            "byteOffset" : 131656
        },
        {
            "buffer" : 0,
            "byteLength" : 5760,
            "byteOffset" : 136128
        },
        {
            "buffer" : 0,
            "byteLength" : 6708,
            "byteOffset" : 141888
        },
        {
            "buffer" : 0,
            "byteLength" : 6708,
            "byteOffset" : 148596
        },
        {
            "buffer" : 0,
            "byteLength" : 4472,
            "byteOffset" : 155304
        },
        {
            "buffer" : 0,
            "byteLength" : 5760,
            "byteOffset" : 159776
        },
        {
            "buffer" : 0,
            "byteLength" : 6708,
            "byteOffset" : 165536
        },
        {
            "buffer" : 0,
            "byteLength" : 6708,
            "byteOffset" : 172244
        },
        {
            "buffer" : 0,
            "byteLength" : 4472,
            "byteOffset" : 178952
        },
        {
            "buffer" : 0,
            "byteLength" : 5760,
            "byteOffset" : 183424
        },
        {
            "buffer" : 0,
            "byteLength" : 6708,
            "byteOffset" : 189184
        },
        {
            "buffer" : 0,
            "byteLength" : 6708,
            "byteOffset" : 195892
        },
        {
            "buffer" : 0,
            "byteLength" : 4472,
            "byteOffset" : 202600
        },
        {
            "buffer" : 0,
            "byteLength" : 5760,
            "byteOffset" : 207072
        },
        {
            "buffer" : 0,
            "byteLength" : 6708,
            "byteOffset" : 212832
        },
        {
            "buffer" : 0,
            "byteLength" : 6708,
            "byteOffset" : 219540
        },
        {
            "buffer" : 0,
            "byteLength" : 4472,
            "byteOffset" : 226248
        },
        {
            "buffer" : 0,
            "byteLength" : 5760,
            "byteOffset" : 230720
        }
    ],
    "buffers" : [
        {
            "byteLength" : 236480,
            "uri" : "balls.bin"
        }
    ]
}
